<?xml version="1.0" encoding="UTF-8" standalone="no"?>
<!-- Created with Inkscape (http://www.inkscape.org/) -->

<svg
   width="835.3913"
   height="108.93005"
   viewBox="0 0 221.03061 28.821075"
   version="1.1"
   id="svg1"
   xml:space="preserve"
   inkscape:version="1.4 (86a8ad7, 2024-10-11)"
   sodipodi:docname="gorshkov.svg"
   inkscape:export-filename="gorshkov.pdf"
   inkscape:export-xdpi="96"
   inkscape:export-ydpi="96"
   xmlns:inkscape="http://www.inkscape.org/namespaces/inkscape"
   xmlns:sodipodi="http://sodipodi.sourceforge.net/DTD/sodipodi-0.dtd"
   xmlns="http://www.w3.org/2000/svg"
   xmlns:svg="http://www.w3.org/2000/svg"><sodipodi:namedview
     id="namedview1"
     pagecolor="#505050"
     bordercolor="#eeeeee"
     borderopacity="1"
     inkscape:showpageshadow="0"
     inkscape:pageopacity="0"
     inkscape:pagecheckerboard="0"
     inkscape:deskcolor="#505050"
     inkscape:document-units="mm"
     inkscape:export-bgcolor="#26373b00"
     inkscape:lockguides="false"
     showgrid="true"
     showguides="false"
     inkscape:zoom="0.83805248"
     inkscape:cx="399.13968"
     inkscape:cy="64.435105"
     inkscape:window-width="2560"
     inkscape:window-height="1566"
     inkscape:window-x="-11"
     inkscape:window-y="-11"
     inkscape:window-maximized="1"
     inkscape:current-layer="layer1"><sodipodi:guide
       position="-146.27921,413.71789"
       orientation="0,1920"
       id="guide2"
       inkscape:locked="false" /><sodipodi:guide
       position="361.72079,413.71789"
       orientation="1080,0"
       id="guide3"
       inkscape:locked="false" /><sodipodi:guide
       position="361.72079,127.96789"
       orientation="0,-1920"
       id="guide4"
       inkscape:locked="false" /><sodipodi:guide
       position="-146.27921,127.96789"
       orientation="-1080,0"
       id="guide5"
       inkscape:locked="false" /><inkscape:grid
       id="grid5"
       units="px"
       originx="-146.27921"
       originy="-127.96788"
       spacingx="2.6458333"
       spacingy="2.6458332"
       empcolor="#0099e5"
       empopacity="0.30196078"
       color="#0099e5"
       opacity="0.14901961"
       empspacing="4"
       enabled="true"
       visible="true" /></sodipodi:namedview><defs
     id="defs1" /><g
     inkscape:label="Layer 1"
     inkscape:groupmode="layer"
     id="layer1"
     transform="translate(-146.27921,-127.96789)"><path
       style="fill:none;stroke:#000000;stroke-width:0.264583"
       d="m 146.4115,156.10416 v -27.45147 l 139.3385,-0.5525 15.875,0.63143 19.84888,1.81534 17.19278,2.68356 10.58334,1.70697 9.71468,2.64584 4.57784,1.80357 3.56162,2.9894 -3.56162,2.99365 -4.57784,1.80357 -9.71468,2.64584 -10.58334,1.70697 -17.19278,2.68356 -19.84888,1.81534 -15.875,0.63143 -139.3385,-0.5525 v -27.45147"
       id="path1"
       sodipodi:nodetypes="ccccccccccccccccccc" /><path
       style="fill:none;stroke:#000000;stroke-width:0.264583"
       d="m 146.39049,132.29166 h 2.73529 l 0.0558,-2.64583 h -2.77009"
       id="path2"
       sodipodi:nodetypes="cccc" /><path
       style="fill:none;stroke:#000000;stroke-width:0.264583"
       d="m 149.16762,130.30755 h 35.58317"
       id="path3" /><path
       style="fill:none;stroke:#000000;stroke-width:0.264583"
       d="m 149.1393,131.65039 h 35.51283"
       id="path4" /><path
       style="fill:none;stroke:#000000;stroke-width:0.264583"
       d="m 184.82935,128.50036 v 27.75613"
       id="path5" /><path
       style="fill:none;stroke:#000000;stroke-width:0.264583"
       d="m 184.82935,138.04513 h 26.83731 l 1.24129,-9.65611"
       id="path6" /><path
       style="fill:none;stroke:#000000;stroke-width:0.264583"
       d="m 220.09044,128.36054 2.52607,8.26388 v 6.25057"
       id="path7" /><path
       style="fill:#333333;stroke:#000000;stroke-width:0.264583"
       d="m 225.2606,131.39544 h 5.4263 l 3.88721,1.40097 h 3.019 v -0.50475 h 2.15079 v 2.22144 h -2.0916 v -0.65116 h -3.07819 l -3.39391,1.07555 h -5.97879 z"
       id="path8" /><path
       style="fill:#4d4d4d;stroke:#000000;stroke-width:0.264583"
       d="m 225.89203,132.29166 v 2.06358 h 2.68355 v -2.06358 z"
       id="path9" /><path
       style="fill:none;stroke:#000000;stroke-width:0.264583"
       d="m 249.21505,128.24506 v 13.29263"
       id="path10" /><path
       style="fill:none;stroke:#000000;stroke-width:0.264583"
       d="m 249.21505,133.26998 h 2.13911 v 8.09013"
       id="path11" /><path
       style="fill:none;stroke:#000000;stroke-width:0.264583"
       d="m 251.35416,134.63149 h 2.64583 l 0.83889,-3.15712 h 1.80695 l 0.83091,3.10101 h 12.87149 l 0.98661,-4.92955 h 4.30159 l 3.19656,3.93986 v 8.85968"
       id="path12" /><path
       style="fill:#ffcc00;stroke:#000000;stroke-width:0.264583"
       d="m 249.21505,130.34964 h 21.97892"
       id="path13" /><path
       style="fill:none;stroke:#000000;stroke-width:0.264583"
       d="m 291.99424,130.72455 v 6.78781 h 3.03874 v -6.82727 z"
       id="path14" /><path
       style="fill:none;stroke:#000000;stroke-width:0.264583"
       d="m 296.29483,128.51961 1.95877,7.31013 v 7.04525 0 0 h 0.0153"
       id="path15" /><path
       style="fill:none;stroke:#000000;stroke-width:0.264583"
       d="m 297.22939,128.55678 1.87931,7.01363 v 7.30458"
       id="path16" /><path
       style="fill:none;stroke:#000000;stroke-width:0.264583"
       d="m 257.47674,134.57538 0.32194,1.31896 0.95685,-0.95685 2.67384,3.06817 5.79979,2.2235 v 2.29513"
       id="path19" /><path
       style="fill:none;stroke:#000000;stroke-width:0.264583"
       d="m 253.35898,142.52429 v -0.73008 h -1.18392 v -0.4341 h -5.09086 v 0.76954 h -1.02171 v 0.39464"
       id="path20" /><path
       style="fill:none;stroke:#000000;stroke-width:0.264583"
       d="m 237.23793,142.84 v -6.25504 h -0.96687 v -1.02607 h -1.20365 v 1.02607 h -9.23458 v 6.29004"
       id="path21" /><path
       style="fill:none;stroke:#000000;stroke-width:0.264583"
       d="m 148.16666,142.87499 v -9.43197 l 18.52084,0.16743 1.69292,2.23242 v 7.03212"
       id="path23" /><path
       style="fill:none;stroke:#000000;stroke-width:0.264583"
       d="m 194.55557,138.04513 -0.44649,-6.55548 1.68258,-1.17203 16.86166,0.0522"
       id="path24" /><rect
       style="fill:#ffffff;stroke:#000000;stroke-width:0.264583"
       id="rect25"
       width="2.7347171"
       height="1.3394531"
       x="241.52014"
       y="130.62459"
       ry="0.53020018" /><rect
       style="fill:#ffffff;stroke:#000000;stroke-width:0.264583"
       id="rect25-8"
       width="2.7347171"
       height="1.3394531"
       x="241.53053"
       y="132.15938"
       ry="0.53020018" /><rect
       style="fill:#ffffff;stroke:#000000;stroke-width:0.264583"
       id="rect25-8-2"
       width="2.7347171"
       height="1.3394531"
       x="136.80814"
       y="-221.85725"
       ry="0.53020018"
       transform="rotate(90)" /><rect
       style="fill:#ffffff;stroke:#000000;stroke-width:0.264583"
       id="rect25-8-2-5"
       width="2.7347171"
       height="1.3394531"
       x="139.69275"
       y="-221.80144"
       ry="0.53020018"
       transform="rotate(90)" /><rect
       style="fill:#ffffff;stroke:#000000;stroke-width:0.264583"
       id="rect25-3"
       width="2.7347171"
       height="1.3394531"
       x="241.50261"
       y="151.51218"
       ry="0.53020018" /><rect
       style="fill:#ffffff;stroke:#000000;stroke-width:0.264583"
       id="rect25-7"
       width="2.7347171"
       height="1.3394531"
       x="200.43529"
       y="130.70831"
       ry="0.53020018" /><rect
       style="fill:#ffffff;stroke:#000000;stroke-width:0.264583"
       id="rect25-7-2"
       width="2.7347171"
       height="1.3394531"
       x="203.63818"
       y="130.71033"
       ry="0.53020018" /><rect
       style="fill:#ffffff;stroke:#000000;stroke-width:0.264583"
       id="rect25-7-2-4"
       width="2.7347171"
       height="1.3394531"
       x="200.38055"
       y="132.29892"
       ry="0.53020018" /><path
       style="fill:none;stroke:#000000;stroke-width:0.264583"
       d="m 298.97916,137.58333 h 15.12261 v 5.29166"
       id="path25" /><path
       style="fill:#333333;stroke:#000000;stroke-width:0.264583"
       d="m 342.67677,137.58333 -1.27548,-0.0247 1.77416,4.90864 -1.78136,4.90864 1.27548,-0.0247 2.01316,-4.88394 v 0 z"
       id="path26"
       sodipodi:nodetypes="cccccccc" /><path
       style="fill:none;stroke:#000000;stroke-width:0.264583"
       d="m 146.38329,152.64288 h 2.73529 l 0.0558,2.64583 h -2.77009"
       id="path2-2"
       sodipodi:nodetypes="cccc" /><path
       style="fill:none;stroke:#000000;stroke-width:0.264583"
       d="m 149.16042,154.62699 h 35.58317"
       id="path3-1" /><path
       style="fill:none;stroke:#000000;stroke-width:0.264583"
       d="m 149.1321,153.28415 h 35.51283"
       id="path4-6" /><path
       style="fill:none;stroke:#000000;stroke-width:0.264583"
       d="m 184.82215,146.88941 h 26.83731 l 1.24129,9.65611"
       id="path6-8" /><path
       style="fill:none;stroke:#000000;stroke-width:0.264583"
       d="m 220.08324,156.574 2.52607,-8.26388 v -6.25057"
       id="path7-5" /><path
       style="fill:#333333;stroke:#000000;stroke-width:0.264583"
       d="m 225.2534,153.5391 h 5.4263 l 3.88721,-1.40097 h 3.019 v 0.50475 h 2.15079 v -2.22144 h -2.0916 v 0.65116 h -3.07819 l -3.39391,-1.07555 h -5.97879 z"
       id="path8-7" /><path
       style="fill:#4d4d4d;stroke:#000000;stroke-width:0.264583"
       d="m 225.88483,152.64288 v -2.06358 h 2.68355 v 2.06358 z"
       id="path9-6" /><path
       style="fill:none;stroke:#000000;stroke-width:0.264583"
       d="M 249.20785,156.68948 V 143.39685"
       id="path10-1" /><path
       style="fill:none;stroke:#000000;stroke-width:0.264583"
       d="m 249.20785,151.66456 h 2.13911 v -8.09013"
       id="path11-8" /><path
       style="fill:none;stroke:#000000;stroke-width:0.264583"
       d="m 251.34696,150.30305 h 2.64583 l 0.83889,3.15712 h 1.80695 l 0.83091,-3.10101 h 12.87149 l 0.98661,4.92955 h 4.30159 l 3.19656,-3.93986 v -8.85968"
       id="path12-9" /><path
       style="fill:none;stroke:#000000;stroke-width:0.264583"
       d="m 249.20785,154.5849 h 21.97892"
       id="path13-2" /><path
       style="fill:none;stroke:#000000;stroke-width:0.264583"
       d="m 291.98704,154.20999 v -6.78781 h 3.03874 v 6.82727 z"
       id="path14-7" /><path
       style="fill:none;stroke:#000000;stroke-width:0.264583"
       d="m 296.28763,156.41493 1.95877,-7.31013 v -7.04525 0 0 h 0.0153"
       id="path15-9" /><path
       style="fill:none;stroke:#000000;stroke-width:0.264583"
       d="m 297.22219,156.37776 1.87931,-7.01363 v -7.30458"
       id="path16-5" /><path
       style="fill:none;stroke:#000000;stroke-width:0.264583"
       d="m 297.62711,154.86658 10.46126,-0.51847 12.05026,-1.10499 15.875,-2.44677 12.2491,-2.17052 11.14859,-3.07819 2.58489,-1.105 1.83508,-1.12472 0.16147,-0.85065 -0.15427,-0.85065 -1.83508,-1.12472 -2.58489,-1.105 -11.14859,-3.07819 -12.2491,-2.17052 -15.875,-2.44677 -12.05026,-1.10499 -10.46126,-0.51847"
       id="path18-3"
       sodipodi:nodetypes="ccccccccccccccccc" /><path
       style="fill:none;stroke:#000000;stroke-width:0.264583"
       d="m 257.46954,150.35916 0.32194,-1.31896 0.95685,0.95685 2.67384,-3.06817 5.79979,-2.2235 v -2.29513"
       id="path19-1" /><path
       style="fill:none;stroke:#000000;stroke-width:0.264583"
       d="m 253.35178,142.41025 v 0.73008 h -1.18392 v 0.4341 H 247.077 v -0.76954 h -1.02171 v -0.39464"
       id="path20-2" /><path
       style="fill:none;stroke:#000000;stroke-width:0.264583"
       d="m 237.23073,142.09454 v 6.25504 h -0.96687 v 1.02607 h -1.20365 v -1.02607 h -9.23458 v -6.29004"
       id="path21-3" /><path
       style="fill:none;stroke:#000000;stroke-width:0.264583"
       d="m 148.15946,142.05955 v 9.43197 l 18.52084,-0.16743 1.69292,-2.23242 v -7.03212"
       id="path23-3" /><path
       style="fill:none;stroke:#000000;stroke-width:0.264583"
       d="m 194.54837,146.88941 -0.44649,6.55548 1.68258,1.17203 16.86166,-0.0522"
       id="path24-4" /><rect
       style="fill:#ffffff;stroke:#000000;stroke-width:0.264583"
       id="rect25-1"
       width="2.7347171"
       height="1.3394531"
       x="241.51295"
       y="-154.30995"
       ry="0.53020018"
       transform="scale(1,-1)" /><rect
       style="fill:#ffffff;stroke:#000000;stroke-width:0.264583"
       id="rect25-7-1"
       width="2.7347171"
       height="1.3394531"
       x="200.4281"
       y="-154.22623"
       ry="0.53020018"
       transform="scale(1,-1)" /><rect
       style="fill:#ffffff;stroke:#000000;stroke-width:0.264583"
       id="rect25-7-2-3"
       width="2.7347171"
       height="1.3394531"
       x="203.631"
       y="-154.22421"
       ry="0.53020018"
       transform="scale(1,-1)" /><rect
       style="fill:#ffffff;stroke:#000000;stroke-width:0.264583"
       id="rect25-7-2-4-8"
       width="2.7347171"
       height="1.3394531"
       x="200.37337"
       y="-152.63562"
       ry="0.53020018"
       transform="scale(1,-1)" /><path
       style="fill:none;stroke:#000000;stroke-width:0.264583"
       d="m 298.97196,147.35121 h 15.12261 v -5.29166"
       id="path25-7" /><circle
       style="fill:none;stroke:#ffffff;stroke-width:0.264583"
       id="path27"
       cx="158.99548"
       cy="142.4487"
       r="8.1829853" /><circle
       style="fill:none;stroke:#ffffff;stroke-width:0.264583"
       id="path27-9"
       cx="159.07198"
       cy="142.69878"
       r="2.8251729" /><path
       style="fill:none;stroke:#ffffff;stroke-width:0.264583"
       d="m 159.07197,139.8736 h 7.61553"
       id="path28" /><path
       style="fill:none;stroke:#ffffff;stroke-width:0.264583"
       d="m 159.07197,145.52395 h 7.50666"
       id="path29" /><path
       style="fill:none;stroke:#ffffff;stroke-width:0.264583"
       d="m 164.04166,149.18159 v 4.10256"
       id="path30" /><path
       style="fill:none;stroke:#ffffff;stroke-width:0.264583"
       d="m 164.04166,135.95449 v -4.3041"
       id="path31" /><path
       style="fill:none;stroke:#ffffff;stroke-width:0.264583"
       d="m 168.38042,140.51163 h 16.44893"
       id="path32" /><path
       style="fill:none;stroke:#ffffff;stroke-width:0.264583"
       d="m 168.38042,141.36011 h 16.44893"
       id="path33" /><path
       style="fill:none;stroke:#ffffff;stroke-width:0.264583"
       d="m 168.37368,143.76201 h 16.44893"
       id="path32-8" /><path
       style="fill:none;stroke:#ffffff;stroke-width:0.264583"
       d="m 168.37368,144.61049 h 16.44893"
       id="path33-6" /><path
       style="fill:none;stroke:#ffffff;stroke-width:0.264583"
       d="m 167.17702,142.60273 h 1.94289"
       id="path34" /><path
       style="fill:none;stroke:#ffffff;stroke-width:0.264583"
       d="m 178.98904,142.56376 h 5.84031"
       id="path35" /><circle
       style="fill:none;stroke:#000000;stroke-width:0.264583"
       id="path36"
       cx="198.59639"
       cy="142.45883"
       r="1.9041387" /><circle
       style="fill:none;stroke:#000000;stroke-width:0.264583"
       id="path36-8"
       cx="205.23642"
       cy="142.45883"
       r="1.9041387" /><rect
       style="fill:none;stroke:#000000;stroke-width:0.264583"
       id="rect36"
       width="3.8674734"
       height="7.7349467"
       x="211.4482"
       y="138.6371"
       rx="0.80901235"
       ry="0.80901235" /><circle
       style="fill:none;stroke:#000000;stroke-width:0.264583"
       id="path37"
       cx="214.23047"
       cy="134.65482"
       r="1.3220445" /><circle
       style="fill:none;stroke:#000000;stroke-width:0.264583"
       id="path37-4"
       cx="214.18288"
       cy="150.40665"
       r="1.3220445" /><circle
       style="fill:none;stroke:#000000;stroke-width:0.264583"
       id="path38"
       cx="272.10571"
       cy="142.48218"
       r="3.6602876" /><rect
       style="fill:#333333;stroke:#000000;stroke-width:0.264583"
       id="rect38"
       width="4.0700622"
       height="7.2094359"
       x="286.4693"
       y="138.7997" /><rect
       style="fill:#333333;stroke:#000000;stroke-width:0.264583"
       id="rect38-0"
       width="4.0700622"
       height="7.2094359"
       x="291.17398"
       y="138.79967" /><rect
       style="fill:#333333;stroke:#000000;stroke-width:0.264583"
       id="rect39"
       width="6.9842448"
       height="4.2033653"
       x="299.1087"
       y="137.58333" /><rect
       style="fill:#333333;stroke:#000000;stroke-width:0.264583"
       id="rect39-6"
       width="6.9842448"
       height="4.2033653"
       x="299.09711"
       y="143.13998" /><rect
       style="fill:#333333;stroke:#000000;stroke-width:0.264583"
       id="rect39-9"
       width="6.9842448"
       height="4.2033653"
       x="307.08887"
       y="137.58333" /><rect
       style="fill:#333333;stroke:#000000;stroke-width:0.264583"
       id="rect39-6-3"
       width="6.9842448"
       height="4.2033653"
       x="307.07727"
       y="143.13998" /><rect
       style="fill:none;stroke:#000000;stroke-width:0.264583"
       id="rect40"
       width="2.3306034"
       height="2.7626221"
       x="304.58606"
       y="133.61044"
       rx="0.75344241"
       ry="0.75344241" /><rect
       style="fill:none;stroke:#000000;stroke-width:0.264583"
       id="rect40-0"
       width="2.3306034"
       height="2.7626221"
       x="304.66769"
       y="148.35478"
       rx="0.75344241"
       ry="0.75344241" /><circle
       style="fill:none;stroke:#000000;stroke-width:0.264583"
       id="path40"
       cx="327.41263"
       cy="142.4005"
       r="7.3783703" /><path
       style="fill:#333333;stroke:#000000;stroke-width:0.264583"
       d="m 322.79166,139.84074 1.36576,-0.9274 h 6.1564 l 1.85481,0.9274 v 1.93374 h 7.81386 v 1.10051 h -7.7152 v 2.21446 l -1.53813,0.88804 h -6.59146 l -1.34604,-0.77714 z"
       id="path17" /><path
       style="fill:#ffcc00;stroke:#666666;stroke-width:0.105469"
       d=""
       id="path41"
       transform="scale(0.26458333)" /><path
       style="fill:#ffcc00;stroke:#666666;stroke-width:0.105469"
       d=""
       id="path44"
       transform="scale(0.26458333)" /><path
       style="fill:#ff0000;stroke:#666666;stroke-width:0.105469"
       d="m 942.41602,518.95899 v -14.7129 h 3.5332 3.5332 v 14.7129 14.71289 h -3.5332 -3.5332 z"
       id="path45"
       transform="scale(0.26458333)" /><path
       style="fill:#ff0000;stroke:#666666;stroke-width:0.105469"
       d="m 942.41602,557.92969 v -14.76563 h 3.48047 3.48046 v 14.76563 14.76562 h -3.48046 -3.48047 z"
       id="path46"
       transform="scale(0.26458333)" /><path
       style="fill:#c8ab37;stroke:#666666;stroke-width:0.105469"
       d="m 950.53711,505.72266 v -2.53125 h -4.06055 -4.06054 v -5.00977 -5.00976 h 40.92187 c 38.90491,0 40.92161,0.009 40.91671,0.18457 0,0.10151 -0.6577,3.43564 -1.4553,7.40918 l -1.4502,7.22461 -23.89357,0.0266 -23.89356,0.0266 -0.53286,-1.97777 c -0.29307,-1.08777 -0.99957,-3.72253 -1.56999,-5.85502 l -1.03713,-3.87725 -3.84271,0.0276 -3.84271,0.0276 -1.39997,5.27344 c -0.76998,2.90039 -1.47931,5.57007 -1.57629,5.93262 l -0.17631,0.65918 h -4.52345 -4.52344 z"
       id="path47"
       transform="scale(0.26458333)" /><path
       style="fill:#c8ab37;stroke:#666666;stroke-width:0.105469"
       d="M 942.41602,578.70703 V 573.75 h 4.06054 4.06055 v -2.58512 -2.58511 l 4.50615,0.0275 4.50614,0.0275 1.54851,5.83102 c 0.85169,3.20707 1.57539,5.90107 1.60824,5.98667 0.0514,0.13396 0.59155,0.15179 3.87702,0.12796 l 3.8173,-0.0277 1.399,-5.22071 c 0.76945,-2.87138 1.4787,-5.51733 1.57612,-5.87988 l 0.17713,-0.65918 h 23.87696 c 13.13232,0 23.87692,0.0128 23.87692,0.0285 0,0.0157 0.6645,3.34885 1.4766,7.40705 0.8121,4.05819 1.4766,7.39136 1.4766,7.40704 0,0.0157 -18.4149,0.0285 -40.92191,0.0285 h -40.92187 z"
       id="path48"
       transform="scale(0.26458333)" /><path
       style="fill:#999999;stroke:#666666;stroke-width:0.421875"
       d="m 699.25781,503.78806 v -17.22757 l 29.17901,-0.28025 C 744.48527,486.12611 768.03752,486 780.77517,486 h 23.15934 l -0.25982,2.00391 c -0.1429,1.10214 -0.34799,2.43105 -0.45576,2.95312 l -0.19594,0.94922 h -31.65164 -31.65164 l -3.16954,2.13878 c -1.74324,1.17633 -3.27066,2.40232 -3.39426,2.72442 -0.20424,0.53224 0.8322,18.17171 1.31928,22.45321 l 0.20398,1.79297 h -17.71068 -17.71068 z"
       id="path49"
       transform="scale(0.26458333)" /><path
       style="fill:#999999;stroke:#666666;stroke-width:0.421875"
       d="m 713.28516,589.88692 -14.02735,-0.11704 v -16.86932 -16.86931 h 17.67861 17.6786 l -0.1763,1.58203 c -0.23595,2.11737 -1.43091,20.21145 -1.43091,21.66696 0,0.96077 0.56718,1.54695 3.45424,3.56997 l 3.45423,2.42044 31.54124,-0.23794 31.54124,-0.23794 0.26655,1.96589 c 0.14661,1.08125 0.35831,2.29813 0.47046,2.70418 0.19326,0.69973 -1.79679,0.73309 -38.10968,0.6387 -21.07248,-0.0548 -44.62589,-0.15225 -52.34093,-0.21662 z"
       id="path50"
       transform="scale(0.26458333)" /><path
       style="fill:#999999;stroke:#666666;stroke-width:0.421875"
       d="m 889.10156,561.9375 v -2.10937 H 871.59375 854.08594 V 538.3125 516.79688 h 17.50781 17.50781 V 514.89844 513 h 1.6875 1.6875 v 1.89844 1.89844 h 1.6875 1.6875 v 21.49136 21.49137 l -1.79297,0.12973 -1.79296,0.12972 -0.12859,2.00391 c -0.12692,1.97798 -0.14739,2.00391 -1.58203,2.00391 h -1.45345 z"
       id="path51"
       transform="scale(0.26458333)" /><path
       style="fill:#999999;stroke:#666666;stroke-width:0.421875"
       d="m 963.7393,579.12891 c -0.0188,-0.058 -0.73229,-2.66836 -1.58558,-5.80078 l -1.55144,-5.69532 -4.95348,-0.11886 -4.95349,-0.11885 V 555.38505 543.375 h 1.47657 c 1.19531,0 1.47656,-0.16071 1.47656,-0.84375 0,-0.74148 0.28125,-0.84375 2.32031,-0.84375 h 2.32031 v -3.16406 -3.16406 h -2.32031 c -2.03906,0 -2.32031,-0.10228 -2.32031,-0.84375 0,-0.68304 -0.28125,-0.84375 -1.47656,-0.84375 h -1.47657 v -12.01005 -12.01005 l 4.95349,-0.11886 4.95348,-0.11886 1.51353,-5.69531 1.51352,-5.69531 2.96043,-0.12265 2.96044,-0.12264 2.15102,8.29095 c 1.18306,4.56002 2.26031,8.40025 2.3939,8.53383 0.13359,0.13359 1.07085,-0.5697 2.08281,-1.56286 l 1.83992,-1.80575 4.79576,5.47924 4.79577,5.47925 10.87203,4.15467 10.87199,4.15468 -0.1142,7.96817 -0.1142,7.96818 -5.9062,2.28178 c -3.24849,1.25498 -8.11606,3.13641 -10.81687,4.18095 l -4.91056,1.89916 -4.76151,5.48179 -4.76152,5.48178 -1.81517,-1.78146 c -0.99834,-0.9798 -1.95239,-1.64422 -2.12011,-1.4765 -0.25935,0.25934 -2.27455,7.66531 -4.0066,14.72446 l -0.49168,2.00391 h -2.88067 c -1.58437,0 -2.89603,-0.0475 -2.91481,-0.10547 z"
       id="path52"
       transform="scale(0.26458333)" /><path
       style="fill:#999999;stroke:#666666;stroke-width:0.421875"
       d="m 1025.9341,551.38213 c -4.0144,-0.81476 -7.5558,-3.66811 -9.3794,-7.55717 -1.5634,-3.33411 -1.5292,-7.74696 0.084,-10.87726 4.0722,-7.90035 13.8712,-9.93521 20.356,-4.22712 4.4341,3.90306 5.7087,10.22012 3.111,15.41852 -2.6883,5.37977 -8.5619,8.38165 -14.1719,7.24303 z"
       id="path53"
       transform="scale(0.26458333)" /><path
       style="fill:#666666;stroke:#666666;stroke-width:0.421875"
       d="m 564.25781,577.54688 v -1.26563 h -5.0625 -5.0625 v -37.75781 -37.75781 h 5.0625 5.0625 V 499.5 498.23438 h 27.42188 27.42187 v 3.00004 3.00004 l -29.95312,-0.31365 -29.95313,-0.31365 v 34.8367 34.8367 l 29.95313,-0.25497 29.95312,-0.25496 v 3.02094 3.02093 h -27.42187 -27.42188 z"
       id="path54"
       transform="scale(0.26458333)" /><path
       style="fill:#666666;stroke:#666666;stroke-width:0.421875"
       d="m 637.24219,521.79339 v -8.50348 l -3.48047,-4.57397 -3.48047,-4.57396 -4.74609,-6.8e-4 -4.7461,-6.7e-4 v -2.95313 -2.95312 h 38.60157 38.60156 v 16.03125 16.03125 h -30.375 -30.375 z"
       id="path55"
       transform="scale(0.26458333)" /><path
       style="fill:#666666;stroke:#666666;stroke-width:0.421875"
       d="m 560.88261,538.35019 2e-4,-33.50138 11.45917,0.27872 c 6.30254,0.1533 19.40176,0.27872 29.10937,0.27872 h 17.65021 v 3.41016 c 0,1.87558 -0.14238,3.33932 -0.3164,3.25274 -8.25973,-4.10924 -10.29277,-4.78733 -15.68401,-5.23108 -6.30501,-0.51896 -13.78786,1.42383 -19.35499,5.02518 -20.16873,13.04709 -18.83349,43.33284 2.40027,54.44266 5.12276,2.68031 8.38191,3.43628 14.81451,3.43628 6.55788,0 9.79751,-0.77365 15.08203,-3.60168 l 3.05859,-1.63682 v 3.3099 3.3099 l -10.65234,0.27429 c -5.85879,0.15087 -18.9581,0.31468 -29.10958,0.36404 l -18.45723,0.0897 z"
       id="path56"
       transform="scale(0.26458333)" /><path
       style="fill:#666666;stroke:#666666;stroke-width:0.421875"
       d="m 596.22049,568.25178 c -6.97878,-1.17511 -14.46303,-5.52156 -18.68783,-10.85289 -2.38222,-3.00615 -5.02789,-8.29272 -5.96265,-11.91451 -0.95424,-3.69727 -0.93398,-10.71483 0.0414,-14.34375 2.75616,-10.2543 10.1949,-18.16765 20.27922,-21.57306 2.57446,-0.86938 3.7375,-0.99602 9.07031,-0.98764 5.59556,0.009 6.40498,0.1101 9.49219,1.18798 7.82906,2.73345 15.11907,9.35464 18.06662,16.4091 l 0.64027,1.53241 -15.25969,0.13357 -15.2597,0.13357 -2.40642,1.18171 c -4.38003,2.15089 -6.43394,5.67681 -6.16235,10.57883 0.18991,3.42786 1.09562,5.62882 3.16986,7.70305 2.95698,2.95699 2.47127,2.88242 19.67481,3.02082 17.60234,0.14161 16.09325,-0.28404 13.65284,3.85091 -1.75019,2.96547 -6.6728,7.87351 -9.70237,9.67366 -6.45467,3.83531 -13.97596,5.38946 -20.64651,4.26624 z"
       id="path57"
       transform="scale(0.26458333)" /><path
       style="fill:#666666;stroke:#666666;stroke-width:0.421875"
       d="m 597.94546,548.72016 c -3.27192,-1.22351 -6.01845,-4.4625 -6.4985,-7.66373 -1.19784,-7.98778 6.69908,-13.98633 13.96091,-10.60478 9.10164,4.23828 6.56553,17.92351 -3.45846,18.66229 -1.49125,0.10991 -3.07296,-0.0456 -4.00395,-0.39378 z"
       id="path58"
       transform="scale(0.26458333)" /><path
       style="fill:#666666;stroke:#666666;stroke-width:0.421875"
       d="m 608.64269,548.00701 c 4.96764,-4.09475 5.06997,-12.92553 0.19809,-17.09567 l -1.70359,-1.45821 h 11.26607 11.26606 l 0.41218,1.0841 c 1.30895,3.44281 1.20045,11.59266 -0.21936,16.47662 l -0.65915,2.2674 h -11.05308 -11.05309 z"
       id="path59"
       transform="scale(0.26458333)" /><path
       style="fill:#666666;stroke:#666666;stroke-width:0.421875"
       d="m 620.78906,575.91457 v -2.89792 l 1.58203,-0.2615 c 0.87012,-0.14382 3.03887,-0.26358 4.81944,-0.26613 l 3.2374,-0.005 3.40713,-4.41355 3.40713,-4.41355 v -8.2427 -8.2427 h 30.375 30.375 v 15.82031 15.82031 h -38.60156 -38.60157 z"
       id="path60"
       transform="scale(0.26458333)" /><path
       style="fill:#666666;stroke:#666666;stroke-width:0.421875"
       d="m 637.24219,541.05469 c 0,-1.29375 0.13058,-1.47656 1.05469,-1.47656 0.65625,0 1.05468,-0.23907 1.05468,-0.63282 0,-0.39375 -0.39843,-0.63281 -1.05468,-0.63281 -0.94922,0 -1.05469,-0.16875 -1.05469,-1.6875 v -1.6875 h 30.375 30.375 v 1.6875 1.6875 h -10.75781 c -9.28125,0 -10.75782,0.0869 -10.75782,0.63281 0,0.54596 1.47657,0.63282 10.75782,0.63282 h 10.75781 v 1.47656 1.47656 h -30.375 -30.375 z"
       id="path61"
       transform="scale(0.26458333)" /><path
       style="fill:#666666;stroke:#666666;stroke-width:0.105469"
       d="m 636.87305,544.95703 v -1.05469 h 30.58594 30.58593 v 1.05469 1.05469 h -30.58593 -30.58594 z"
       id="path62"
       transform="scale(0.26458333)" /><path
       style="fill:#666666;stroke:#666666;stroke-width:0.105469"
       d="m 636.97852,532.66992 v -1.00195 h 30.5332 30.5332 v 1.00195 1.00196 h -30.5332 -30.5332 z"
       id="path63"
       transform="scale(0.26458333)" /><path
       style="fill:#666666;stroke:#666666;stroke-width:0.105469"
       d="m 620.52539,567.63859 v -3.79109 l -0.48104,-0.0322 -0.48104,-0.0322 1.08749,-0.86326 c 4.83871,-3.84107 8.5639,-9.33543 10.37676,-15.30491 0.69524,-2.28934 1.16391,-4.83935 1.27841,-6.95585 l 0.0642,-1.18652 h 1.7241 1.7241 v 11.91338 11.91339 l -3.08239,4.06513 -3.08239,4.06513 h -4.56409 -4.5641 z"
       id="path64"
       transform="scale(0.26458333)" /><path
       style="fill:#666666;stroke:#666666;stroke-width:0.105469"
       d="m 632.40004,537.38965 c -0.11024,-1.79899 -0.28537,-3.41941 -0.49871,-4.61426 -1.25704,-7.04023 -4.93376,-13.48192 -10.40035,-18.22164 l -0.97559,-0.84586 -10e-6,-4.12445 -1e-5,-4.12445 4.56154,0.0351 c 3.29155,0.0254 4.59666,0.0694 4.68771,0.15821 0.0694,0.0677 1.45738,1.87913 3.08441,4.02542 l 2.95823,3.90234 5.5e-4,12.41894 5.5e-4,12.41895 h -1.67766 -1.67765 z"
       id="path65"
       transform="scale(0.26458333)" /><path
       style="fill:#4d4d4d;stroke:#666666;stroke-width:0.149155"
       d="m 564.37438,490.64648 0.0895,-1.26782 h -5.28775 -5.28776 v -1.24977 -1.24978 l 11.52225,-0.0916 c 6.33724,-0.0504 31.18838,-0.15874 55.22477,-0.24078 24.03638,-0.082 51.27028,-0.19285 60.51977,-0.24624 l 16.81727,-0.0971 v 2.85544 2.85545 h -66.84375 -66.84374 z"
       id="path66"
       transform="scale(0.26458333)" /><path
       style="fill:#4d4d4d;stroke:#666666;stroke-width:0.149155"
       d="m 687.6061,589.9567 c -2.95327,-0.0171 -24.36452,-0.10165 -47.58055,-0.18785 -23.21603,-0.0862 -52.09437,-0.20114 -64.17408,-0.25542 l -21.96313,-0.0987 v -0.94593 -0.94594 h 5.22044 5.22044 v -1.26782 -1.26782 h 66.82159 66.82159 v 2.53564 2.53564 l -2.49835,-0.0353 c -1.3741,-0.0194 -4.91467,-0.0494 -7.86795,-0.0665 z"
       id="path67"
       transform="scale(0.26458333)" /><path
       style="fill:#4d4d4d;stroke:#666666;stroke-width:0.149155"
       d="m 553.88834,581.92955 v -4.40009 h 4.53652 4.53651 l 0.0877,1.08138 c 0.0483,0.59476 0.10432,2.57485 0.12459,4.4002 l 0.0369,3.31882 -4.6611,-1.2e-4 -4.66111,-1.1e-4 z"
       id="path68"
       transform="scale(0.26458333)" /><path
       style="fill:#4d4d4d;stroke:#666666;stroke-width:0.149155"
       d="m 564.32792,582.63803 c -7.1e-4,-0.63577 -0.0436,-1.50833 -0.0953,-1.93901 l -0.0941,-0.78307 h 66.91694 66.91695 v 1.93902 1.93902 h -66.82159 -66.82159 z"
       id="path69"
       transform="scale(0.26458333)" /><path
       style="fill:#4d4d4d;stroke:#666666;stroke-width:0.149155"
       d="m 564.32922,495.04656 v -1.93902 h 66.82159 66.82159 v 1.93902 1.93902 h -66.82159 -66.82159 z"
       id="path70"
       transform="scale(0.26458333)" /><path
       style="fill:#4d4d4d;stroke:#666666;stroke-width:0.210938"
       d="m 1124.4023,589.65425 c 0,-0.0715 0.2087,-0.92567 0.4638,-1.89822 0.4411,-1.68157 0.4953,-1.773 1.1074,-1.86508 0.354,-0.0533 8.8544,-0.48596 18.8898,-0.96156 18.1201,-0.85875 18.4063,-0.87926 41.4492,-2.97058 l 23.2031,-2.10586 30.1641,-4.63934 c 24.0565,-3.69998 34.8835,-5.47487 53.4726,-8.76583 l 23.3086,-4.12648 20.9883,-5.78808 20.9883,-5.78808 5.0652,-2.16774 c 3.9755,-1.70133 5.8225,-2.6324 8.5846,-4.32741 1.9356,-1.18782 3.5676,-2.3215 3.6267,-2.51929 0.4527,-1.51416 0.5795,-3.33447 0.3397,-4.87595 -0.1406,-0.90399 -0.3193,-1.74657 -0.3971,-1.87241 -0.078,-0.12584 -1.7532,-1.21401 -3.7232,-2.41815 -2.7689,-1.69246 -4.6749,-2.6564 -8.3981,-4.24717 l -4.8162,-2.0578 -20.9182,-5.78602 -20.9181,-5.78601 -23.2031,-4.12315 c -18.5705,-3.29995 -29.2045,-5.0488 -53.2617,-8.75929 l -30.0586,-4.63612 -22.8581,-2.10334 c -22.7345,-2.09198 -22.9619,-2.10847 -42.082,-3.05255 -10.5732,-0.52207 -19.4093,-0.97318 -19.6358,-1.00246 -0.3341,-0.0432 -0.5222,-0.46903 -0.9965,-2.25598 -0.3216,-1.2115 -0.5634,-2.21171 -0.5374,-2.22268 0.026,-0.011 3.8442,0.13969 8.4848,0.3348 7.5013,0.31538 12.5331,0.7313 45.3515,3.74866 l 36.9141,3.39391 33.0117,5.15688 c 18.1565,2.83628 41.6496,6.54533 52.2071,8.24233 l 19.1953,3.08545 18.5625,5.04191 18.5625,5.04192 8.5429,3.36502 8.543,3.36503 6.3805,5.34428 c 3.5092,2.93936 6.3806,5.39747 6.3808,5.46248 3e-4,0.065 -2.8562,2.51901 -6.3476,5.45336 l -6.3479,5.33516 -8.5759,3.38017 -8.5758,3.38017 -18.0352,4.93371 -18.0351,4.93372 -20.7774,3.36395 c -11.4275,1.85017 -35.1105,5.60297 -52.6289,8.33955 l -31.8516,4.9756 -37.7578,3.45306 c -30.7127,2.80876 -38.9188,3.49553 -43.9804,3.68071 -3.4225,0.12522 -6.8634,0.27561 -7.6465,0.33421 -0.7831,0.0586 -1.4239,0.0481 -1.4239,-0.0234 z"
       id="path71"
       transform="scale(0.26458333)" /><path
       style="fill:#4d4d4d;stroke:#666666;stroke-width:0.210938"
       d="m 1124.6863,589.21365 c 0.06,-0.20989 0.2702,-0.97282 0.4666,-1.69539 0.3283,-1.20758 0.4104,-1.32244 1.0162,-1.42102 0.3625,-0.059 7.6358,-0.44254 16.1629,-0.85235 21.1405,-1.01601 19.6232,-0.90652 48.3047,-3.48567 l 18.8789,-1.69766 21.0938,-3.25222 c 34.919,-5.38379 42.9393,-6.69954 70.1367,-11.50615 l 15.7148,-2.77729 20.1446,-5.55299 c 11.0795,-3.05415 20.4293,-5.61915 20.7773,-5.70001 0.9408,-0.21856 7.1992,-2.89875 10.336,-4.42642 2.3383,-1.13883 6.0289,-3.32737 7.6867,-4.55834 0.2582,-0.19172 0.5542,-0.71379 0.6578,-1.16015 0.2641,-1.1379 0.2438,-4.34705 -0.034,-5.45209 -0.22,-0.87386 -0.357,-1.00357 -2.4785,-2.34659 -3.0543,-1.93356 -7.0299,-3.9677 -11.2721,-5.76749 -3.2722,-1.38824 -5.1054,-1.93524 -24.053,-7.17721 -11.281,-3.12094 -20.9353,-5.76901 -21.454,-5.8846 -1.8017,-0.4015 -35.7987,-6.37891 -44.5017,-7.82435 -10.5949,-1.75967 -20.6212,-3.34332 -44.0735,-6.96143 l -17.8118,-2.74793 -19.5242,-1.78236 c -27.4649,-2.50728 -26.1779,-2.41538 -52.0084,-3.71388 -7.193,-0.36159 -13.145,-0.72026 -13.2267,-0.79704 -0.2526,-0.23742 -1.0889,-3.61139 -0.9336,-3.76665 0.1884,-0.18842 11.4925,0.26924 16.9352,0.68564 7.394,0.56568 23.4471,2.0083 62.1606,5.58606 11.3343,1.04749 11.4012,1.05647 33.0117,4.43334 26.7283,4.1766 53.5216,8.40732 70.0444,11.06019 l 12.5306,2.0119 18.5845,5.04897 18.5845,5.04898 8.4356,3.31703 8.4357,3.31703 1.7929,1.4861 c 5.1213,4.24473 10.7578,9.07465 10.7578,9.21825 0,0.0896 -2.7991,2.52935 -6.2203,5.42167 -4.4573,3.76828 -6.505,5.3658 -7.2246,5.63637 -0.5524,0.20767 -3.757,1.46016 -7.1215,2.78331 -3.3644,1.32314 -6.8291,2.68231 -7.6992,3.02037 -0.8701,0.33806 -9.6029,2.80579 -19.4062,5.48384 l -17.8242,4.86919 -8.4375,1.3669 c -21.795,3.53084 -40.63,6.51979 -74.9883,11.90001 l -21.6211,3.38567 -26.3672,2.41284 c -42.4873,3.88796 -48.7271,4.41497 -56.1094,4.73892 -2.6683,0.1171 -5.6428,0.26768 -6.61,0.33461 -1.6268,0.11261 -1.7502,0.0932 -1.649,-0.25991 z"
       id="path72"
       transform="scale(0.26458333)" /><path
       style="fill:#999999;stroke:#666666;stroke-width:0.210938"
       d="m 554.02734,495.07031 v -4.42968 h 4.6693 4.6693 l -0.13414,0.97866 c -0.0738,0.53826 -0.13414,2.53162 -0.13414,4.42968 V 499.5 h -4.53516 -4.53516 z"
       id="path73"
       transform="scale(0.26458333)" /><path
       style="fill:#999999;stroke:#666666;stroke-width:0.210938"
       d="m 804.73876,587.61914 c -0.19938,-1.53721 -1.23316,-9.58183 -2.29726,-17.87695 l -1.93474,-15.08203 -50.67721,-0.0532 -50.67721,-0.0532 v -16.13628 -16.13629 h 50.73047 c 46.71352,0 50.73047,-0.0272 50.73047,-0.3432 0,-0.44853 4.40137,-34.81129 4.55586,-35.56891 l 0.11829,-0.58008 h 13.05229 13.0523 l 0.84051,2.68946 c 0.46228,1.4792 2.55464,8.30429 4.64969,15.16688 l 3.80919,12.47744 v 22.28997 22.28998 l -4.22792,13.85368 c -2.32536,7.61953 -4.37381,14.30457 -4.55211,14.85564 l -0.32419,1.00195 h -13.24295 -13.24295 z m 7.16121,-14.15418 c 1.17316,-0.54631 2.24622,-1.64432 2.76975,-2.83414 0.52837,-1.20083 0.47754,-3.3156 -0.1088,-4.52682 -2.44309,-5.04674 -10.07566,-3.73961 -10.51566,1.80088 -0.13072,1.6461 0.18595,2.83552 1.06004,3.98153 1.5109,1.98093 4.45955,2.66596 6.79467,1.57855 z m 0.86694,-20.2944 c 0.32011,-0.2392 0.77773,-0.69697 1.01693,-1.01728 0.42602,-0.57047 0.43621,-0.8374 0.49865,-13.06509 0.0428,-8.38724 -0.01,-12.73583 -0.16081,-13.25417 -0.28076,-0.96459 -1.4208,-1.98587 -2.55887,-2.29232 -0.55419,-0.14923 -2.60314,-0.2097 -5.66143,-0.16708 -4.78622,0.0667 -4.7941,0.0676 -5.64035,0.62804 -1.69567,1.12304 -1.64331,0.70583 -1.71672,13.67703 -0.0358,6.32285 -0.006,11.98964 0.0666,12.59287 0.15227,1.26853 0.75795,2.2734 1.78916,2.96833 0.71989,0.48514 0.77203,0.4887 6.25539,0.4269 5.20299,-0.0586 5.56381,-0.088 6.11147,-0.49723 z m -58.87628,-7.69306 c 1.56605,-0.74513 3.30865,-2.57879 3.90396,-4.10796 0.66559,-1.70967 0.68174,-4.15425 0.0383,-5.79923 -0.65934,-1.68571 -2.09046,-3.21586 -3.78927,-4.05147 -1.3129,-0.64579 -1.56066,-0.69452 -3.52478,-0.69314 -1.91371,10e-4 -2.22736,0.0594 -3.33132,0.61715 -1.50489,0.76025 -2.95537,2.2788 -3.69703,3.87053 -0.47774,1.02531 -0.56201,1.49079 -0.56201,3.10459 0,1.61031 0.0847,2.08012 0.55786,3.09554 0.95344,2.04594 2.71812,3.67467 4.67186,4.31191 1.39625,0.45542 4.43115,0.27122 5.7324,-0.34792 z m 25.37843,-0.19731 c 4.15705,-2.22412 5.45271,-7.34094 2.83036,-11.17759 -0.96215,-1.40768 -2.17455,-2.35702 -3.78596,-2.9645 -1.75891,-0.66309 -4.31332,-0.52836 -6.02435,0.31776 -1.49574,0.73966 -2.94916,2.25481 -3.70035,3.85752 -0.48192,1.0282 -0.56532,1.48623 -0.56532,3.10459 0,1.63748 0.0812,2.07241 0.59078,3.16406 0.62276,1.33412 1.89054,2.79086 3.06354,3.52014 1.24088,0.77149 2.35366,1.01401 4.3613,0.9505 1.69155,-0.0535 2.04355,-0.1377 3.23,-0.77248 z m 58.13021,-6.65469 c 1.27085,-0.60306 1.3937,-1.08534 1.3937,-5.47125 0,-3.05858 -0.0694,-4.06714 -0.31197,-4.53629 -0.17158,-0.33181 -0.41864,-0.63884 -0.54902,-0.6823 -0.13284,-0.0443 0.0507,-0.387 0.41744,-0.77965 l 0.65449,-0.70062 v -4.19312 -4.19311 l -0.58008,-0.64752 c -0.66845,-0.74615 -2.00488,-1.13185 -3.18467,-0.9191 -1.08612,0.19586 -1.47226,0.43543 -1.94106,1.20428 -0.36676,0.6015 -0.40989,1.08257 -0.41059,4.58023 -6.7e-4,3.32332 0.0525,3.98619 0.35562,4.42969 0.19602,0.28685 0.47847,0.59615 0.62764,0.68733 0.19918,0.12175 0.0905,0.32731 -0.40914,0.77372 l -0.68038,0.60792 v 4.31937 c 0,4.02114 0.0291,4.35203 0.42188,4.79222 0.90538,1.01476 2.87276,1.35618 4.19614,0.7282 z m -25.88388,-24.42866 c 2.29017,-0.84435 3.67895,-2.83024 3.67895,-5.26073 0,-1.73877 -0.57994,-3.02764 -1.8754,-4.16795 -0.94674,-0.83335 -2.52298,-1.47128 -3.63535,-1.47128 -1.93435,0 -4.1372,1.43999 -4.98367,3.2578 -0.54504,1.17047 -0.67746,3.20441 -0.27797,4.26948 0.82794,2.20739 2.88144,3.62031 5.26164,3.62031 0.63809,0 1.4624,-0.11143 1.8318,-0.24763 z"
       id="path74"
       transform="scale(0.26458333)" /><path
       style="fill:#999999;stroke:#666666;stroke-width:0.210938"
       d="m 996.25781,591.15141 c -29.46797,-0.13203 -53.60185,-0.25703 -53.63086,-0.27776 -0.029,-0.0207 -0.0527,-1.36686 -0.0527,-2.99137 v -2.95366 l 40.97007,0.0533 40.97008,0.0533 0.2199,1.16015 0.22,1.16016 8.5616,0.0551 8.5615,0.0551 6.1469,-7.58344 6.1468,-7.58344 V 538.4393 504.57987 l -6.1656,-7.60244 -6.1655,-7.60243 h -8.4906 -8.4906 l -0.1104,0.47461 c -0.061,0.26104 -0.1854,0.8543 -0.2771,1.31836 l -0.1667,0.84375 -40.96518,0.0533 -40.96517,0.0533 v -3.35032 -3.35033 l 11.86523,-0.12633 c 6.52588,-0.0695 37.73145,-0.21544 69.34572,-0.32435 l 57.4804,-0.19802 19.0671,0.77375 19.067,0.77376 3.6526,13.60547 3.6526,13.60546 0.01,24.8221 0.01,24.8221 -3.5726,13.32668 c -1.965,7.32967 -3.6024,13.3519 -3.6387,13.38274 -0.036,0.0308 -8.8464,0.40287 -19.5778,0.82673 -22.4343,0.8861 -13.4887,0.84781 -103.67576,0.44372 z m 119.39059,-20.98735 v -13.39453 l -6.3824,-0.0558 -6.3824,-0.0558 0.054,13.3449 0.054,13.34489 4.957,0.11554 c 2.7264,0.0636 5.574,0.11102 6.3281,0.10547 l 1.3711,-0.0101 z m -16.9804,-31.95703 v -14.23828 h -8.2266 -8.2266 v 14.23828 14.23828 h 8.2266 8.2266 z m 17.7187,0 v -14.23828 h -8.2265 -8.2266 v 14.23828 14.23828 h 8.2266 8.2265 z m -0.684,-31.37695 0.054,-13.44727 h -6.3297 -6.3296 v 13.50314 13.50314 l 6.2753,-0.0559 6.2754,-0.0559 z"
       id="path75"
       transform="scale(0.26458333)" /><path
       style="fill:#4d4d4d;stroke:#666666;stroke-width:0.210938"
       d="m 1024.1219,577.0205 -1.8722,-9.38575 -22.0196,-0.0537 -22.0196,-0.0537 4.85766,-5.58984 c 2.67172,-3.07441 5.07123,-5.75189 5.33225,-5.94996 0.26103,-0.19806 5.17322,-2.15888 10.916,-4.35739 5.74279,-2.19851 10.60749,-4.0637 10.81059,-4.14488 0.3433,-0.1373 0.3691,-0.76794 0.3691,-9.041 v -8.89341 l -11.01139,-4.21488 -11.01138,-4.21489 -5.16108,-5.90625 -5.16107,-5.90625 22.06182,-0.0537 22.0618,-0.0537 0.1895,-0.89552 c 0.1042,-0.49253 0.9408,-4.66866 1.8592,-9.28028 l 1.6697,-8.38476 7.8081,0.0132 7.8081,0.0132 5.8535,7.25238 5.8535,7.25237 -0.01,33.28713 -0.01,33.28713 -5.9482,7.33008 -5.9481,7.33008 h -7.7072 -7.7072 z m 7.6789,-24.47996 c 0.7541,-0.17623 2.1779,-0.71645 3.164,-1.20051 1.4286,-0.70122 2.1593,-1.24637 3.5953,-2.68232 2.906,-2.90603 4.2,-6.02942 4.2063,-10.15326 0.01,-4.09816 -1.2759,-7.17831 -4.2096,-10.112 -2.9337,-2.93369 -6.0139,-4.21596 -10.112,-4.20964 -2.5246,0.004 -4.2634,0.40469 -6.5502,1.50992 -3.5634,1.7222 -6.5788,5.56118 -7.51,9.56118 -0.5142,2.20876 -0.3366,5.83269 0.3859,7.87526 1.6553,4.67938 5.5789,8.27967 10.2626,9.4169 1.6061,0.38996 5.0875,0.38712 6.7677,-0.006 z"
       id="path76"
       transform="scale(0.26458333)" /><path
       style="fill:#4d4d4d;stroke:#666666;stroke-width:0.0527344"
       d="m 974.16126,566.1958 c 0.20786,-0.84836 0.39546,-1.61201 0.41689,-1.69699 0.0383,-0.15184 0.0679,-0.12568 1.70991,1.51304 l 1.67093,1.66755 11.25654,0.005 c 6.1911,0.003 11.26747,0.0161 11.28077,0.0294 0.013,0.0133 -5.99165,0.0242 -13.34437,0.0242 h -13.36858 z"
       id="path77"
       transform="scale(0.26458333)" /><path
       style="fill:#4d4d4d;stroke:#666666;stroke-width:0.0527344"
       d="m 974.24531,510.95579 c -0.21528,-0.89146 -0.40195,-1.66236 -0.41484,-1.71311 -0.0221,-0.0871 0.12114,-0.0917 2.52715,-0.0813 1.40282,0.006 2.31835,0.0188 2.03451,0.0283 -0.28385,0.009 -0.5047,0.0357 -0.49079,0.0582 0.0139,0.0225 -0.71494,0.78067 -1.61966,1.68481 l -1.64496,1.64388 z"
       id="path78"
       transform="scale(0.26458333)" /><path
       style="fill:#333333;stroke:#666666;stroke-width:0.149155"
       d="m 1125.6799,584.50248 c 0.038,-0.10255 1.2445,-4.57425 2.6802,-9.93712 l 2.6102,-9.75066 v -3.63603 -3.63602 h 28.3401 28.3401 l -0.038,-19.0546 -0.038,-19.05459 -15.0647,-0.0246 c -8.2856,-0.0135 -20.988,-0.0303 -28.2276,-0.0373 l -13.163,-0.0127 7e-4,-3.39328 7e-4,-3.39328 -2.7075,-10.10808 c -1.4892,-5.55944 -2.6725,-10.14319 -2.6296,-10.18611 0.068,-0.0684 15.7278,0.67443 33.3023,1.57973 4.4001,0.22666 11.3216,0.80543 28.4141,2.37598 l 22.597,2.07632 29.9803,4.62356 c 28.5004,4.39533 31.1214,4.82599 53.0993,8.7248 l 23.119,4.10126 21.031,5.81331 21.0309,5.81332 4.7729,2.04522 c 4.4063,1.8881 5.0318,2.20392 8.1413,4.11085 l 3.3682,2.06563 0.2515,1.40779 c 0.2363,1.32313 0.2361,1.49417 0,2.84457 l -0.2546,1.43679 -3.3652,2.06569 c -3.1477,1.93225 -3.6831,2.20114 -8.2872,4.16263 l -4.9222,2.09695 -20.8817,5.76444 -20.8818,5.76444 -23.0445,4.0899 c -21.8708,3.8816 -24.5714,4.32558 -53.0247,8.71741 l -29.9802,4.62752 -22.597,2.08099 c -24.2675,2.23482 -22.0908,2.08187 -47.658,3.34891 -15.5263,0.76943 -14.4032,0.73126 -14.3115,0.48634 z m 33.519,-13.28162 c 0.4921,-0.28927 0.8456,-0.65471 1.1545,-1.19324 l 0.4452,-0.77628 v -3.28141 c 0,-3.61686 -0.087,-4.03606 -0.9833,-4.87693 -0.7405,-0.69438 -1.4704,-0.90882 -3.3375,-0.98045 -3.0574,-0.1173 -4.3269,0.35367 -5.1086,1.89514 -0.407,0.80278 -0.4101,0.83151 -0.4093,3.80254 5e-4,1.70196 0.071,3.25107 0.164,3.59027 0.1972,0.72075 1.3259,1.87435 2.0772,2.12294 0.3195,0.10572 1.4301,0.16033 2.9038,0.14279 2.3201,-0.0276 2.4063,-0.04 3.0959,-0.44537 z m 81.8032,-4.80606 c 13.0507,-1.67807 23.2408,-11.98256 24.7404,-25.01822 l 0.099,-0.85764 h 9.8271 9.8271 v -2.61022 -2.61022 h -9.8414 -9.8415 l -0.065,-0.3356 c -0.036,-0.18458 -0.143,-0.83899 -0.2379,-1.45426 -0.9312,-6.03345 -4.3747,-12.34219 -8.9629,-16.42061 -3.9631,-3.52276 -8.254,-5.68154 -13.5222,-6.80314 -1.7656,-0.37589 -2.1605,-0.40526 -5.4824,-0.40776 -2.7794,-0.002 -3.8826,0.0549 -4.9345,0.25513 -11.7348,2.23331 -20.692,10.95351 -23.0159,22.40687 -1.8807,9.26916 1.0123,18.94238 7.6645,25.6271 6.2967,6.32745 15.0206,9.35049 23.7462,8.22857 z m 58.4301,-18.44909 3.9202,-9.50236 -3.891,-9.47723 c -3.8288,-9.32541 -3.8983,-9.47854 -4.3421,-9.55883 -0.248,-0.0449 -1.5995,-0.0618 -3.0032,-0.0377 l -2.5522,0.0439 3.1857,8.80017 c 1.7521,4.84009 3.2936,9.13604 3.4255,9.54656 l 0.2399,0.7464 -3.3589,9.24701 c -1.8474,5.08585 -3.4059,9.36588 -3.4634,9.51117 -0.098,0.2483 0.076,0.26174 2.9073,0.22373 l 3.0119,-0.0404 z m -140.4477,-32.52343 c 0.3416,-0.2263 0.8063,-0.69102 1.0326,-1.03272 l 0.4114,-0.62127 0.043,-3.44194 0.043,-3.44194 -0.4907,-0.81387 c -0.3789,-0.62841 -0.673,-0.90883 -1.2908,-1.23053 -0.7773,-0.40478 -0.8666,-0.41657 -3.1323,-0.41339 -2.5715,0.004 -3.1127,0.13793 -3.9569,0.98218 -0.8932,0.89323 -0.9786,1.30724 -0.9822,4.76503 0,3.06989 0.01,3.15737 0.3769,3.90319 0.3696,0.74173 1.0404,1.38986 1.7382,1.67965 0.1885,0.0783 1.5225,0.12763 2.9644,0.10968 2.5876,-0.0322 2.6299,-0.038 3.2429,-0.44407 z"
       id="path79"
       transform="scale(0.26458333)" /><path
       style="fill:#333333;stroke:#666666;stroke-width:0.149155"
       d="m 737.49856,581.97872 c -1.43562,-1.01195 -2.76612,-1.95013 -2.95667,-2.08485 l -0.34646,-0.24495 0.75972,-11.31416 c 0.41784,-6.22278 0.796,-11.59941 0.84035,-11.94806 l 0.0806,-0.63391 h 31.80346 31.80347 l 1.78889,13.94602 1.7889,13.94602 -9.69935,6e-5 c -5.33465,3e-5 -19.49887,0.0391 -31.47604,0.0869 l -21.77668,0.0868 z m 29.72261,1.07205 c 0.86794,-0.59519 1.15255,-1.25643 1.15255,-2.67778 0,-1.60626 -0.34989,-2.25281 -1.56613,-2.894 -0.24611,-0.12974 -0.35715,-0.23858 -0.24676,-0.24186 0.39742,-0.0118 1.10738,-0.65978 1.37953,-1.25904 0.31396,-0.69132 0.38259,-2.34514 0.12556,-3.02544 -0.21589,-0.5714 -0.85955,-1.234 -1.43999,-1.48235 -0.60127,-0.25727 -7.53675,-0.29679 -8.19862,-0.0467 -0.5714,0.21589 -1.23399,0.85955 -1.48235,1.43999 -0.29975,0.70056 -0.25738,2.37417 0.0788,3.11452 0.26266,0.57836 0.98537,1.25306 1.34224,1.25306 0.29162,0 0.17302,0.24277 -0.22183,0.45408 -1.37964,0.73836 -1.63665,3.77861 -0.42211,4.99315 0.28102,0.28102 0.72866,0.57592 0.99475,0.65533 0.26806,0.08 2.15171,0.13167 4.22404,0.11588 3.71647,-0.0283 3.74366,-0.0308 4.28027,-0.39882 z m 12.04657,0.0421 c 0.85936,-0.5345 1.18756,-1.28882 1.18756,-2.72945 0,-1.44063 -0.3282,-2.19496 -1.18756,-2.72946 -0.50924,-0.31673 -0.66661,-0.32823 -4.49127,-0.32823 h -3.96355 l -0.54045,0.37033 c -0.87451,0.59922 -1.15307,1.25371 -1.15242,2.70766 5.9e-4,1.32274 0.22689,1.93116 0.94338,2.53632 0.58597,0.49493 1.17855,0.55835 4.9477,0.52955 3.55686,-0.0272 3.75323,-0.0436 4.25661,-0.35672 z"
       id="path80"
       transform="scale(0.26458333)" /><path
       style="fill:#333333;stroke:#666666;stroke-width:0.149155"
       d="m 735.78946,520.06737 c -0.16739,-1.92897 -1.56973,-22.83623 -1.53318,-22.8581 0.0195,-0.0117 1.36374,-0.94201 2.9872,-2.06741 l 2.95176,-2.04619 31.45725,0.1048 31.45725,0.10479 -0.0686,0.3859 c -0.0947,0.53289 -3.49398,27.08404 -3.49398,27.29083 0,0.12238 -8.47063,0.16676 -31.83194,0.16676 h -31.83193 z m 31.09867,-14.77424 c 0.93752,-0.49578 1.33643,-1.31471 1.33643,-2.74362 0,-0.8026 -0.08,-1.2579 -0.29493,-1.67927 -0.29817,-0.58447 -1.00003,-1.19976 -1.3688,-1.19998 -0.11039,-6e-5 0.0852,-0.14164 0.43466,-0.31462 0.79314,-0.39259 1.17775,-0.92284 1.39116,-1.9179 0.31733,-1.47968 -0.18469,-2.99728 -1.20049,-3.62908 -0.49809,-0.30979 -0.72549,-0.33097 -4.04844,-0.37712 -3.81209,-0.0529 -4.4439,0.0281 -5.20345,0.6672 -0.71883,0.60485 -0.89636,1.08989 -0.89636,2.44895 0,1.37741 0.28972,2.09433 1.05302,2.60572 0.24072,0.16128 0.43787,0.32831 0.43811,0.37118 2.3e-4,0.0429 -0.21771,0.19553 -0.48433,0.33924 -0.75964,0.40946 -1.1783,1.14702 -1.26407,2.22693 -0.0904,1.13787 0.13258,2.03236 0.66398,2.66389 0.69498,0.82594 0.9473,0.8697 5.05129,0.8761 3.62497,0.006 3.76315,-0.005 4.39222,-0.33762 z m 12.22925,-5.95835 c 0.83854,-0.42362 1.29075,-1.09933 1.41816,-2.11912 0.19834,-1.5875 -0.23286,-2.76356 -1.24371,-3.39211 -0.52321,-0.32533 -0.71775,-0.34574 -3.75305,-0.39363 -3.70005,-0.0584 -4.58144,0.0207 -5.24209,0.47048 -0.83423,0.56795 -1.08744,1.05017 -1.15208,2.19407 -0.0323,0.5711 -0.0138,1.27772 0.0411,1.57026 0.12455,0.66391 1.00784,1.66318 1.6294,1.84334 0.25692,0.0745 2.08056,0.14146 4.05254,0.14886 3.43591,0.0129 3.61311,-5.5e-4 4.24972,-0.32215 z"
       id="path81"
       transform="scale(0.26458333)" /><path
       style="fill:#333333;stroke:#666666;stroke-width:0.149155"
       d="m 748.94563,544.8599 c -1.9036,-0.47662 -3.75591,-2.13206 -4.50104,-4.02265 -1.53893,-3.9047 1.04148,-8.34832 5.18896,-8.93568 2.95364,-0.41828 5.70442,1.08828 7.00693,3.83761 0.44185,0.93264 0.47181,1.10113 0.46892,2.63701 -0.003,1.34499 -0.0628,1.78857 -0.33453,2.46106 -0.6706,1.65975 -2.13126,3.11591 -3.76415,3.75254 -0.92444,0.36042 -3.12136,0.50639 -4.06509,0.27011 z"
       id="path82"
       transform="scale(0.26458333)" /><path
       style="fill:#333333;stroke:#666666;stroke-width:0.149155"
       d="m 773.7078,544.73343 c -1.79545,-0.59382 -3.16533,-1.81202 -4.03422,-3.58754 -0.45531,-0.93038 -0.47951,-1.06641 -0.47951,-2.69512 0,-1.61637 0.0272,-1.77275 0.47201,-2.71159 2.004,-4.23001 7.42547,-5.24355 10.67359,-1.99543 3.22686,3.22685 2.30434,8.65397 -1.80717,10.63152 -0.99808,0.48006 -1.26899,0.54284 -2.54296,0.58926 -1.10605,0.0403 -1.61785,-0.0115 -2.28174,-0.2311 z"
       id="path83"
       transform="scale(0.26458333)" /><path
       style="fill:#333333;stroke:#666666;stroke-width:0.149155"
       d="m 800.96416,552.25868 c -0.32814,-0.19746 -0.73086,-0.58276 -0.89493,-0.85623 -0.29189,-0.4865 -0.29831,-0.76239 -0.29831,-12.80253 v -12.30531 l 0.35063,-0.56397 c 0.19284,-0.31019 0.60967,-0.69613 0.92628,-0.85765 0.53782,-0.27438 0.89563,-0.29367 5.44611,-0.29367 4.74965,0 4.88504,0.008 5.45749,0.32992 0.32285,0.18145 0.73471,0.56739 0.91524,0.85764 l 0.32823,0.52773 v 12.30531 12.30532 l -0.32823,0.52772 c -0.18053,0.29025 -0.59239,0.67619 -0.91524,0.85764 -0.57282,0.32195 -0.70551,0.32989 -5.48883,0.32851 l -4.90182,-10e-4 z"
       id="path84"
       transform="scale(0.26458333)" /><path
       style="fill:#333333;stroke:#666666;stroke-width:0.149155"
       d="m 808.72024,513.26262 c -2.03811,-0.53272 -3.43671,-2.31146 -3.41613,-4.34461 0.0396,-3.90945 4.77284,-5.86029 7.48821,-3.08631 2.63703,2.69394 0.96959,7.19632 -2.77114,7.48257 -0.46941,0.0359 -1.05484,0.0127 -1.30094,-0.0516 z"
       id="path85"
       transform="scale(0.26458333)" /><path
       style="fill:#333333;stroke:#666666;stroke-width:0.149155"
       d="m 808.1205,572.63696 c -1.43754,-0.49708 -2.41212,-1.50012 -2.83231,-2.91505 -0.45675,-1.53804 -0.13182,-2.94973 0.9579,-4.16176 0.90252,-1.00382 1.87436,-1.4513 3.15606,-1.45321 1.40025,-0.002 2.2997,0.35049 3.20585,1.25664 0.90615,0.90614 1.25872,1.8056 1.25664,3.20585 -0.002,1.29464 -0.44788,2.25218 -1.48185,3.18181 -1.23441,1.10984 -2.72083,1.41872 -4.26229,0.88572 z"
       id="path86"
       transform="scale(0.26458333)" /><path
       style="fill:#333333;stroke:#666666;stroke-width:0.149155"
       d="m 876.3904,590.72271 c -23.89781,-0.10184 -43.47784,-0.21243 -43.51117,-0.24576 -0.0333,-0.0333 1.98434,-6.75161 4.48373,-14.92951 l 4.54434,-14.86889 3.6e-4,-22.26326 3.6e-4,-22.26325 -4.64154,-15.18405 c -2.55285,-8.35122 -4.61695,-15.20411 -4.58689,-15.22864 0.0611,-0.0498 90.04462,-0.39706 101.443,-0.39146 l 7.27132,0.004 v 24.16316 24.16317 h -4.0272 -4.02719 v 1.49155 1.49155 h -1.93902 -1.93902 v 1.78987 1.78986 h 1.93902 1.93902 v 1.49155 1.49156 h 4.02719 4.0272 v 23.86485 23.86485 l -10.77647,-0.0228 c -5.92706,-0.0125 -30.32923,-0.10611 -54.22704,-0.20795 z m 45.92546,-7.27551 c 0.98798,-0.5212 1.32306,-1.21748 1.32611,-2.75559 0.003,-1.33017 -0.15297,-1.79714 -0.80041,-2.40196 l -0.38374,-0.35849 0.51029,-0.56483 c 0.59086,-0.65401 0.73242,-1.2295 0.6521,-2.65094 -0.0472,-0.83484 -0.13372,-1.12189 -0.47195,-1.56534 -0.79278,-1.03939 -0.91601,-1.06476 -5.17174,-1.06476 -3.44143,0 -3.85797,0.0271 -4.3761,0.28434 -0.83054,0.41238 -1.30932,1.2191 -1.39982,2.35862 -0.0968,1.21866 0.16117,2.13842 0.77071,2.74796 l 0.48681,0.48681 -0.41476,0.39737 c -0.63433,0.60772 -0.77078,1.09704 -0.71256,2.55515 0.0616,1.54332 0.37878,2.13952 1.38004,2.59424 0.54241,0.24634 1.02512,0.27803 4.27951,0.28093 3.55433,0.003 3.68853,-0.007 4.32551,-0.34351 z m -42.94041,-5.24654 7.23542,-2.61022 h 5.3911 5.39111 v 0.96951 0.96951 h 4.62382 4.62382 v -4.77297 -4.77297 h -4.47467 -4.47466 v 1.19325 1.19324 h -5.60289 -5.6029 l -6.35011,-2.0136 -6.35011,-2.0136 h -11.6185 -11.6185 l 0.0857,6.45097 c 0.0471,3.54803 0.12131,6.80335 0.16486,7.23404 l 0.0792,0.78306 h 10.63098 10.63097 z m 14.1396,-14.99011 v -1.93902 h 1.86444 1.86444 V 538.45077 515.63 h -1.86444 -1.86444 v -1.93902 -1.93902 h -2.83396 -2.83395 v 1.93902 1.93902 h -17.45117 -17.45118 v 22.82077 22.82076 h 17.45118 17.45117 v 1.93902 1.93902 h 2.83395 2.83396 z m -13.29598,-54.66552 6.36025,-2.01369 5.55604,9e-5 5.55603,9e-5 v 1.19325 1.19324 h 4.47466 4.47467 v -4.77513 -4.77512 l -4.58653,0.0394 -4.58653,0.0394 -0.0444,0.93222 -0.0444,0.93222 -5.39976,-7.6e-4 -5.39977,-7.5e-4 -7.23403,-2.60943 -7.23404,-2.60943 -10.61144,-4e-5 -10.61143,-3e-5 -0.0862,2.42377 c -0.0474,1.33308 -0.12113,4.5884 -0.16377,7.23404 l -0.0775,4.81026 h 11.64899 11.64899 z m 41.56091,-3.52282 c 1.3752,-0.3809 2.00705,-1.31444 2.00705,-2.96535 0,-1.15861 -0.35968,-2.05806 -1.01745,-2.54437 l -0.45516,-0.33651 0.57477,-0.5578 c 1.09366,-1.06136 1.20049,-3.26696 0.22111,-4.5651 -0.66391,-0.88 -1.19473,-0.97059 -5.37843,-0.91792 -3.69699,0.0465 -3.73565,0.0503 -4.28087,0.41985 -0.79388,0.53805 -1.14238,1.35016 -1.14238,2.6621 0,1.29104 0.24158,1.93388 0.93457,2.48682 l 0.51791,0.41325 -0.52473,0.46071 c -0.69782,0.6127 -0.92775,1.21805 -0.92775,2.44258 0,1.624 0.71423,2.72569 1.95733,3.01919 0.78789,0.18602 6.83008,0.17199 7.51403,-0.0175 z"
       id="path87"
       transform="scale(0.26458333)" /><path
       style="fill:#333333;stroke:#666666;stroke-width:0.149155"
       d="m 934.38361,540.60633 v -1.40979 h -1.93902 -1.93902 v -0.74577 -0.74578 h 1.93902 1.93902 v -1.40979 -1.40979 l 9.09847,-0.005 9.09848,-0.005 v 0.81801 0.81801 h 2.23733 2.23733 v 1.93902 1.93902 h -2.23733 -2.23733 v 0.818 0.81801 l -9.09848,-0.005 -9.09847,-0.005 z"
       id="path88"
       transform="scale(0.26458333)" /><path
       style="fill:#333333;stroke:#666666;stroke-width:0.149155"
       d="M 1104.1224,506.90441 V 494.5991 l 3.9899,-9e-4 c 2.1944,-4.9e-4 4.5436,-0.044 5.2204,-0.0967 l 1.2306,-0.0958 v 12.402 12.402 h -5.2205 -5.2204 z"
       id="path89"
       transform="scale(0.26458333)" /><path
       style="fill:#333333;stroke:#666666;stroke-width:0.149155"
       d="m 1107.8886,582.33984 -3.7662,-0.0425 V 569.99456 557.6918 h 5.2204 5.2205 v 12.3799 12.37989 l -1.4543,-0.0346 c -0.7999,-0.019 -3.1491,-0.0537 -5.2204,-0.0771 z"
       id="path90"
       transform="scale(0.26458333)" /><path
       style="fill:#999999;stroke:#666666;stroke-width:0.149155"
       d="m 1120.8278,589.78398 c 0,-0.091 1.5773,-6.04965 3.5051,-13.24143 l 3.5052,-13.07596 v -25.0585 -25.05851 l -3.4978,-13.06684 c -1.9238,-7.18676 -3.5427,-13.25438 -3.5975,-13.4836 l -0.1,-0.41678 1.159,0.0439 1.1591,0.0439 3.48,12.97652 3.4799,12.97651 v 25.95303 25.95303 l -3.37,12.60362 c -1.8535,6.932 -3.4262,12.66259 -3.4949,12.73465 -0.1972,0.20692 -2.2344,0.31313 -2.2344,0.11649 z"
       id="path91"
       transform="scale(0.26458333)" /><path
       style="fill:#999999;stroke:#666666;stroke-width:0.149155"
       d="m 1157.3708,548.3696 v -7.97981 h -13.2176 -13.2177 l 0.09,-0.3356 c 0.05,-0.18458 0.091,-1.05678 0.092,-1.93821 v -1.60261 l 13.163,-0.0381 13.1629,-0.0381 0.039,-7.94252 0.039,-7.94252 h 1.2652 1.2652 l 0.039,7.94252 0.039,7.94252 13.2375,0.0381 13.2376,0.0381 v 1.93821 1.93822 h -13.2748 -13.2749 v 7.97981 7.97981 h -1.3424 -1.3424 z"
       id="path92"
       transform="scale(0.26458333)" /><path
       style="fill:#999999;stroke:#666666;stroke-width:0.149155"
       d="m 1153.1202,514.65493 c -1.294,-0.69119 -1.4547,-1.23481 -1.3921,-4.70885 0.055,-3.08283 0.1735,-3.49309 1.1734,-4.08048 0.4555,-0.26763 0.7729,-0.30359 2.6795,-0.30359 2.4167,0 2.824,0.11839 3.4561,1.00455 0.3374,0.4731 0.3473,0.5772 0.3473,3.64542 0,2.95728 -0.02,3.18466 -0.3075,3.57051 -0.7092,0.95036 -0.9361,1.02343 -3.3198,1.06921 -1.7808,0.0342 -2.2732,-0.003 -2.6369,-0.19677 z"
       id="path93"
       transform="scale(0.26458333)" /><path
       style="fill:#999999;stroke:#666666;stroke-width:0.149155"
       d="m 1153.1356,570.23253 c -0.2375,-0.15656 -0.5731,-0.50781 -0.7458,-0.78055 -0.2922,-0.46152 -0.314,-0.70274 -0.314,-3.48053 0,-2.71638 0.027,-3.03015 0.2983,-3.49108 0.6218,-1.0556 0.8649,-1.13426 3.5052,-1.13426 2.1556,0 2.401,0.0272 2.7765,0.30753 0.9979,0.74501 1.0229,0.84188 1.0694,4.14031 0.048,3.3732 -0.033,3.72119 -1.0119,4.38961 -0.4583,0.31281 -0.6497,0.33554 -2.8188,0.33462 -2.0386,-8.6e-4 -2.3807,-0.0363 -2.7589,-0.28565 z"
       id="path94"
       transform="scale(0.26458333)" /><path
       style="fill:#999999;stroke:#666666;stroke-width:0.149155"
       d="m 1235.6774,565.43592 c -14.2544,-0.83714 -25.5248,-12.8814 -25.5027,-27.25382 0.026,-16.83141 15.0036,-29.56486 31.6803,-26.93333 11.7006,1.84632 21.1566,11.55331 22.6845,23.28667 l 0.102,0.78306 h -4.3395 -4.3395 v -3.57915 -3.57915 l -3.7277,-1.86502 -3.7278,-1.86502 -11.7471,0.005 -11.7471,0.005 -2.7954,1.89717 -2.7954,1.89717 -10e-5,10.44087 -2e-4,10.44087 2.7812,1.60342 2.7812,1.60342 h 12.5578 12.5579 l 3.1551,-1.82233 3.1551,-1.82233 v -4.0693 -4.06931 h 4.1232 4.1232 l -0.097,1.0068 c -0.4784,4.95908 -2.9871,10.56129 -6.5774,14.68797 -4.5254,5.20153 -11.7273,8.80758 -18.2773,9.15164 -0.7794,0.0409 -1.6184,0.0917 -1.8645,0.11287 -0.2461,0.0211 -1.2193,-0.007 -2.1627,-0.0623 z"
       id="path95"
       transform="scale(0.26458333)" /><path
       style="fill:#999999;stroke:#666666;stroke-width:0.210938"
       d="m 554.23828,495.07031 v -4.21875 h 4.45729 4.45729 l -0.13075,0.79102 c -0.0719,0.43506 -0.13179,2.33349 -0.13307,4.21875 l -0.002,3.42773 h -4.32422 -4.32422 z"
       id="path96"
       transform="scale(0.26458333)" /><path
       style="fill:#999999;stroke:#666666;stroke-width:0.210938"
       d="m 554.02734,581.97656 v -4.21875 h 4.42969 4.42969 v 2.21485 c 0,1.21816 0.0712,2.21463 0.1582,2.21437 0.087,-2.6e-4 0.12796,0.9015 0.091,2.0039 l -0.0672,2.00438 h -4.52068 -4.52069 z"
       id="path97"
       transform="scale(0.26458333)" /></g></svg>
