<?xml version="1.0" encoding="UTF-8" standalone="no"?>
<!-- Created with Inkscape (http://www.inkscape.org/) -->

<svg
   width="1920"
   height="1080"
   viewBox="0 0 507.99999 285.75"
   version="1.1"
   id="svg1"
   xml:space="preserve"
   inkscape:version="1.4 (86a8ad7, 2024-10-11)"
   sodipodi:docname="video.svg"
   inkscape:export-filename="video.pdf"
   inkscape:export-xdpi="96"
   inkscape:export-ydpi="96"
   xmlns:inkscape="http://www.inkscape.org/namespaces/inkscape"
   xmlns:sodipodi="http://sodipodi.sourceforge.net/DTD/sodipodi-0.dtd"
   xmlns:xlink="http://www.w3.org/1999/xlink"
   xmlns="http://www.w3.org/2000/svg"
   xmlns:svg="http://www.w3.org/2000/svg"
   xmlns:ns8="http://www.iki.fi/pav/software/textext/"><sodipodi:namedview
     id="namedview1"
     pagecolor="#505050"
     bordercolor="#eeeeee"
     borderopacity="1"
     inkscape:showpageshadow="0"
     inkscape:pageopacity="0"
     inkscape:pagecheckerboard="0"
     inkscape:deskcolor="#505050"
     inkscape:document-units="mm"
     inkscape:export-bgcolor="#26373b00"
     inkscape:lockguides="false"
     showgrid="true"
     showguides="false"
     inkscape:zoom="0.82364846"
     inkscape:cx="928.18725"
     inkscape:cy="503.85573"
     inkscape:window-width="2560"
     inkscape:window-height="1566"
     inkscape:window-x="-11"
     inkscape:window-y="-11"
     inkscape:window-maximized="1"
     inkscape:current-layer="layer1"><sodipodi:guide
       position="0,285.75"
       orientation="0,1920"
       id="guide2"
       inkscape:locked="false" /><sodipodi:guide
       position="508,285.75"
       orientation="1080,0"
       id="guide3"
       inkscape:locked="false" /><sodipodi:guide
       position="508,0"
       orientation="0,-1920"
       id="guide4"
       inkscape:locked="false" /><sodipodi:guide
       position="0,0"
       orientation="-1080,0"
       id="guide5"
       inkscape:locked="false" /><inkscape:grid
       id="grid5"
       units="px"
       originx="0"
       originy="0"
       spacingx="2.6458333"
       spacingy="2.6458332"
       empcolor="#0099e5"
       empopacity="0.30196078"
       color="#0099e5"
       opacity="0.14901961"
       empspacing="4"
       enabled="true"
       visible="true" /></sodipodi:namedview><defs
     id="defs1"><inkscape:path-effect
       effect="bspline"
       id="path-effect38"
       is_visible="true"
       lpeversion="1.3"
       weight="33.333333"
       steps="2"
       helper_size="0"
       apply_no_weight="true"
       apply_with_weight="true"
       only_selected="false"
       uniform="false" /><linearGradient
       id="i"><stop
         offset="0"
         stop-color="#e26400"
         id="stop1" /><stop
         offset="1"
         stop-color="#ffb900"
         id="stop2" /></linearGradient><linearGradient
       id="h"><stop
         offset="0"
         stop-color="#9b4400"
         id="stop3" /><stop
         offset="1"
         stop-color="#e56300"
         id="stop4" /></linearGradient><linearGradient
       id="g"><stop
         offset="0"
         stop-color="#f48200"
         stop-opacity="0"
         id="stop5" /><stop
         offset=".58887613"
         stop-color="#f48200"
         stop-opacity=".72784811"
         id="stop6" /><stop
         offset=".81621653"
         stop-color="#cc5f00"
         id="stop7" /><stop
         offset="1"
         stop-color="#a43d00"
         id="stop8" /></linearGradient><linearGradient
       id="f"><stop
         offset="0"
         stop-color="#a1abb2"
         id="stop9" /><stop
         offset=".08297831"
         stop-color="#eaeced"
         id="stop10" /><stop
         offset="1"
         stop-color="#c6ccd0"
         id="stop11" /></linearGradient><linearGradient
       id="e"><stop
         offset="0"
         stop-color="#7a8288"
         id="stop12" /><stop
         offset=".5288403"
         stop-color="#9fa3a7"
         id="stop13" /><stop
         offset="1"
         stop-color="#7d858b"
         id="stop14" /></linearGradient><linearGradient
       id="d"><stop
         offset="0"
         stop-color="#a1abb2"
         id="stop15" /><stop
         offset=".14824273"
         stop-color="#eaeced"
         id="stop16" /><stop
         offset="1"
         stop-color="#c6ccd0"
         id="stop17" /></linearGradient><linearGradient
       id="c"><stop
         offset="0"
         stop-color="#7a8288"
         id="stop18" /><stop
         offset=".07633271"
         stop-color="#9fa3a7"
         id="stop19" /><stop
         offset="1"
         stop-color="#7d858b"
         id="stop20" /></linearGradient><linearGradient
       id="b"><stop
         offset="0"
         stop-color="#ffb900"
         id="stop21" /><stop
         offset="1"
         stop-color="#ffd76b"
         id="stop22" /></linearGradient><linearGradient
       xlink:href="#a"
       id="r"
       x1="236.651"
       x2="236.05246"
       y1="158.47852"
       y2="162.89346"
       gradientTransform="translate(-181.87459,-35.716927)"
       gradientUnits="userSpaceOnUse"
       spreadMethod="reflect" /><linearGradient
       id="a"><stop
         offset="0"
         stop-color="#f68000"
         id="stop23" /><stop
         offset="1"
         stop-color="#fd9800"
         id="stop24" /></linearGradient><linearGradient
       xlink:href="#b"
       id="q"
       x1="-113.89329"
       x2="412.23013"
       y1="461.92139"
       y2="463.26218"
       gradientTransform="matrix(1.23516,0,0,1.23516,175.36448,255.41051)"
       gradientUnits="userSpaceOnUse" /><linearGradient
       xlink:href="#c"
       id="p"
       x1="107.20918"
       x2="151.34604"
       y1="-.64152896"
       y2="12.703197"
       gradientTransform="matrix(1.23516,0,0,1.23516,174.75249,255.3588)"
       gradientUnits="userSpaceOnUse" /><linearGradient
       xlink:href="#d"
       id="o"
       x1="104.88638"
       x2="164.75943"
       y1="12.640625"
       y2="27.389442"
       gradientTransform="matrix(1.23516,0,0,1.23516,175.36448,255.41051)"
       gradientUnits="userSpaceOnUse" /><linearGradient
       xlink:href="#e"
       id="n"
       x1="18.875"
       x2="334.03125"
       y1="252.48438"
       y2="268.41544"
       gradientTransform="matrix(1.23516,0,0,1.23516,175.36448,255.41051)"
       gradientUnits="userSpaceOnUse" /><linearGradient
       xlink:href="#f"
       id="m"
       x1="44.103722"
       x2="278.4324"
       y1="228.59993"
       y2="290.6998"
       gradientTransform="matrix(1.23516,0,0,1.23516,175.36448,255.41051)"
       gradientUnits="userSpaceOnUse" /><linearGradient
       xlink:href="#g"
       id="l"
       x1="115.20164"
       x2="261.62219"
       y1="70.105232"
       y2="55.356419"
       gradientTransform="matrix(1.23516,0,0,1.23516,175.36448,255.41051)"
       gradientUnits="userSpaceOnUse" /><linearGradient
       xlink:href="#h"
       id="k"
       x1="64.751183"
       x2="93.522026"
       y1="102.28447"
       y2="108.98846"
       gradientTransform="matrix(1.23516,0,0,1.23516,175.36448,255.41051)"
       gradientUnits="userSpaceOnUse" /><linearGradient
       xlink:href="#i"
       id="j"
       x1="40.775471"
       x2="44.375881"
       y1="100.34167"
       y2="125.31633"
       gradientTransform="matrix(4.37655,0,0,4.4651,175.36451,249.18066)"
       gradientUnits="userSpaceOnUse" /><filter
       id="s"
       color-interpolation-filters="sRGB"
       x="-0.025415705"
       y="-0.091577561"
       width="1.0508314"
       height="1.1831551"><feGaussianBlur
         stdDeviation="1.1354669"
         id="feGaussianBlur24" /></filter></defs><g
     inkscape:label="Layer 1"
     inkscape:groupmode="layer"
     id="layer1"><g
       transform="matrix(1.41111,0,0,1.41111,221.83,176.08536)"
       ns8:version="1.11.0"
       ns8:texconverter="pdflatex"
       ns8:pdfconverter="inkscape"
       ns8:text="\\textbf{\\textsf{T2S demo}}"
       ns8:preamble="C:\Users\Matteo\AppData\Roaming\inkscape\extensions\textext\default_packages.tex"
       ns8:scale="4.0"
       ns8:alignment="middle center"
       ns8:inkscapeversion="1.4"
       ns8:jacobian_sqrt="1.41111"
       style="fill:#ffffff;stroke-width:0"
       id="g25"
       inkscape:export-filename="video.pdf"
       inkscape:export-xdpi="96"
       inkscape:export-ydpi="96"><defs
   id="id-b2c8ce08-fc56-4fc3-922b-83cb3fc67270"
   style="fill:#ffffff;stroke-width:0">
    <g
   id="id-f90b837b-d90c-4444-b4b2-0090e4cc24a2"
   style="fill:#ffffff;stroke-width:0">
      <g
   id="id-9409dbb0-fa9c-47c0-b7f1-275b08a0d551"
   style="fill:#ffffff;stroke-width:0">
        <path
   d="m 2.921875,-5.859375 v 5.375 C 2.921875,-0.125 3.03125,0 3.40625,0 h 0.5 c 0.375,0 0.484375,-0.125 0.484375,-0.484375 v -5.375 c 0.4375,0 1.546875,0.03125 1.984375,0.03125 0.28125,0 0.515625,0 0.515625,-0.46875 V -6.375 c 0,-0.328125 -0.0625,-0.484375 -0.46875,-0.484375 H 0.875 c -0.359375,0 -0.46875,0.109375 -0.46875,0.484375 v 0.078125 c 0,0.46875 0.234375,0.46875 0.515625,0.46875 z m 0,0"
   id="id-5b86a70c-51e5-41b4-8de9-5f56206cd5b6"
   style="fill:#ffffff;stroke-width:0" />
      </g>
      <g
   id="id-ee5b4344-2595-4751-a906-bb5bc9dbae5a"
   style="fill:#ffffff;stroke-width:0">
        <path
   d="M 0.640625,-0.84375 C 0.546875,-0.75 0.546875,-0.734375 0.546875,-0.5625 v 0.078125 C 0.546875,-0.125 0.65625,0 1.03125,0 h 3.421875 c 0.375,0 0.46875,-0.125 0.46875,-0.484375 V -0.59375 c 0,-0.15625 0,-0.359375 -0.203125,-0.4375 C 4.640625,-1.078125 4.328125,-1.078125 4.125,-1.078125 c -0.21875,0 -0.453125,0.015625 -0.671875,0.015625 h -1.625 l 1.328125,-1.25 c 0.140625,-0.125 0.515625,-0.4375 0.671875,-0.578125 0.546875,-0.53125 1.09375,-1.0625 1.09375,-1.953125 0,-1.21875 -0.875,-2.296875 -2.34375,-2.296875 -0.34375,0 -0.90625,0.046875 -1.390625,0.4375 -0.09375,0.078125 -0.546875,0.4375 -0.734375,1.09375 l 0.5,0.640625 c 0.0625,0.078125 0.09375,0.125 0.15625,0.125 0.09375,0 0.109375,-0.078125 0.140625,-0.1875 0.203125,-0.6875 0.546875,-1.109375 1.1875,-1.109375 0.765625,0 1.09375,0.703125 1.09375,1.3125 0,0.640625 -0.375,1.3125 -0.984375,1.953125 z m 0,0"
   id="id-cf9da874-9ec3-4993-9a83-b4e7ee16366e"
   style="fill:#ffffff;stroke-width:0" />
      </g>
      <g
   id="id-e4e3db8a-3831-46db-be87-19301e65a06a"
   style="fill:#ffffff;stroke-width:0">
        <path
   d="M 2.6875,-4.390625 C 2.46875,-4.453125 1.859375,-4.671875 1.859375,-5.25 c 0,-0.84375 0.84375,-0.859375 1.1875,-0.859375 0.546875,0 1.046875,0.125 1.53125,0.609375 0.171875,0.140625 0.171875,0.15625 0.21875,0.15625 0.0625,0 0.109375,-0.03125 0.140625,-0.171875 l 0.140625,-0.875 c 0.03125,-0.078125 0.03125,-0.09375 0.03125,-0.125 0,-0.078125 -0.015625,-0.09375 -0.265625,-0.21875 -0.703125,-0.359375 -1.296875,-0.40625 -1.796875,-0.40625 -0.890625,0 -2.4375,0.21875 -2.4375,2.078125 0,0.703125 0.375,1.171875 0.5625,1.359375 0.5,0.515625 0.96875,0.625 1.75,0.796875 0.5625,0.140625 0.78125,0.1875 1,0.390625 0.09375,0.09375 0.3125,0.296875 0.3125,0.6875 0,0.9375 -0.859375,0.953125 -1.1875,0.953125 -0.84375,0 -1.578125,-0.328125 -2.0625,-0.78125 -0.125,-0.125 -0.140625,-0.125 -0.1875,-0.125 -0.0625,0 -0.109375,0.03125 -0.140625,0.1875 l -0.140625,0.859375 c -0.03125,0.09375 -0.03125,0.109375 -0.03125,0.140625 0,0.203125 1.046875,0.5625 1.09375,0.578125 C 2.25,0.203125 2.78125,0.21875 3.046875,0.21875 4.53125,0.21875 5.46875,-0.453125 5.46875,-2 c 0,-1.109375 -0.828125,-1.953125 -1.8125,-2.171875 z m 0,0"
   id="id-965daced-0e33-4183-ad66-6c4fc452ef7a"
   style="fill:#ffffff;stroke-width:0" />
      </g>
      <g
   id="id-d3f98894-da61-452e-ab25-c2e683a181a6"
   style="fill:#ffffff;stroke-width:0">
        <path
   d="m 4.96875,-6.4375 c 0,-0.328125 -0.0625,-0.484375 -0.46875,-0.484375 H 4.125 c -0.375,0 -0.46875,0.140625 -0.46875,0.484375 v 2.265625 c -0.453125,-0.4375 -0.953125,-0.5 -1.265625,-0.5 -2.015625,0 -2.015625,1.90625 -2.015625,2.40625 0,0.453125 0,2.375 1.96875,2.375 0.421875,0 0.84375,-0.125 1.28125,-0.578125 C 3.625,-0.09375 3.765625,0 4.09375,0 H 4.5 C 4.875,0 4.96875,-0.125 4.96875,-0.484375 Z M 3.625,-1.25 c 0,0.171875 0,0.265625 -0.296875,0.46875 -0.25,0.15625 -0.484375,0.171875 -0.59375,0.171875 -1.015625,0 -1.015625,-0.921875 -1.015625,-1.65625 0,-0.75 0,-1.6875 1.125,-1.6875 0.28125,0 0.5625,0.09375 0.78125,0.296875 z m 0,0"
   id="id-d1a5e8b2-f726-48fb-8a9d-37ccc66e463f"
   style="fill:#ffffff;stroke-width:0" />
      </g>
      <g
   id="id-13317b18-06fb-43dd-82c2-8a54c2f4ab96"
   style="fill:#ffffff;stroke-width:0">
        <path
   d="m 4.296875,-2.140625 c 0.234375,0 0.484375,0 0.484375,-0.453125 0,-1.28125 -0.609375,-2.140625 -2.09375,-2.140625 -1.59375,0 -2.375,0.890625 -2.375,2.40625 0,1.640625 0.9375,2.4375 2.515625,2.4375 0.375,0 0.9375,-0.046875 1.59375,-0.375 C 4.640625,-0.375 4.71875,-0.40625 4.71875,-0.53125 c 0,-0.0625 -0.03125,-0.359375 -0.046875,-0.4375 -0.03125,-0.3125 -0.046875,-0.3125 -0.140625,-0.3125 -0.03125,0 -0.0625,0 -0.171875,0.09375 -0.578125,0.515625 -1.171875,0.578125 -1.5,0.578125 -1.125,0 -1.25,-0.890625 -1.28125,-1.53125 z M 1.59375,-2.65625 C 1.625,-3.265625 1.828125,-4.015625 2.6875,-4.015625 c 0.796875,0 0.953125,0.578125 0.984375,1.359375 z m 0,0"
   id="id-703247c6-7252-4cd9-b7c3-fe3cc15452bf"
   style="fill:#ffffff;stroke-width:0" />
      </g>
      <g
   id="id-127ba576-f90f-4b1b-868c-423f2f3e0a32"
   style="fill:#ffffff;stroke-width:0">
        <path
   d="m 8.03125,-3.234375 c 0,-1.03125 -0.4375,-1.4375 -1.453125,-1.4375 -0.703125,0 -1.25,0.328125 -1.609375,0.984375 -0.15625,-0.953125 -1.015625,-0.984375 -1.4375,-0.984375 -0.1875,0 -0.59375,0 -1.046875,0.328125 -0.3125,0.234375 -0.515625,0.546875 -0.578125,0.6875 H 1.890625 v -0.484375 c 0,-0.328125 -0.0625,-0.484375 -0.46875,-0.484375 h -0.34375 c -0.359375,0 -0.484375,0.109375 -0.484375,0.484375 v 3.65625 C 0.59375,-0.125 0.703125,0 1.078125,0 H 1.46875 C 1.859375,0 1.953125,-0.125 1.953125,-0.484375 V -2.6875 c 0,-0.890625 0.609375,-1.265625 1.09375,-1.265625 0.484375,0 0.59375,0.203125 0.59375,0.734375 v 2.734375 C 3.640625,-0.125 3.75,0 4.109375,0 h 0.40625 C 4.890625,0 5,-0.125 5,-0.484375 V -2.6875 c 0,-0.890625 0.609375,-1.265625 1.09375,-1.265625 0.46875,0 0.578125,0.203125 0.578125,0.734375 v 2.734375 C 6.671875,-0.125 6.78125,0 7.15625,0 H 7.5625 c 0.375,0 0.46875,-0.125 0.46875,-0.484375 z m 0,0"
   id="id-d44386ee-9a5a-4bd7-91d4-dc00ac3504b2"
   style="fill:#ffffff;stroke-width:0" />
      </g>
      <g
   id="id-ece82fa0-cc77-4ba0-9501-dec86867d1f1"
   style="fill:#ffffff;stroke-width:0">
        <path
   d="m 5.15625,-2.25 c 0,-1.625 -0.796875,-2.484375 -2.421875,-2.484375 -1.65625,0 -2.421875,0.890625 -2.421875,2.484375 0,1.625 0.859375,2.359375 2.421875,2.359375 1.5625,0 2.421875,-0.71875 2.421875,-2.359375 z m -2.421875,1.578125 c -1.0625,0 -1.0625,-0.890625 -1.0625,-1.6875 0,-0.765625 0,-1.65625 1.0625,-1.65625 1.078125,0 1.078125,0.875 1.078125,1.65625 0,0.78125 0,1.6875 -1.078125,1.6875 z m 0,0"
   id="id-4fa8ea85-9826-4816-b380-61a0b9c369af"
   style="fill:#ffffff;stroke-width:0" />
      </g>
    </g>
  </defs>
  <g
   fill-opacity="1"
   id="id-c9bd04d7-40be-48f3-a8c8-aef4b55581bb"
   transform="translate(-149.118,-127.624)"
   style="fill:#ffffff;stroke-width:0">
    <g
   transform="translate(148.712,134.765)"
   style="fill:#ffffff;stroke-width:0"
   id="g1"><path
   d="m 2.921875,-5.859375 v 5.375 C 2.921875,-0.125 3.03125,0 3.40625,0 h 0.5 c 0.375,0 0.484375,-0.125 0.484375,-0.484375 v -5.375 c 0.4375,0 1.546875,0.03125 1.984375,0.03125 0.28125,0 0.515625,0 0.515625,-0.46875 V -6.375 c 0,-0.328125 -0.0625,-0.484375 -0.46875,-0.484375 H 0.875 c -0.359375,0 -0.46875,0.109375 -0.46875,0.484375 v 0.078125 c 0,0.46875 0.234375,0.46875 0.515625,0.46875 z m 0,0"
   id="id-142f6e5d-639d-42ee-ab83-c53d58ef0eac"
   style="fill:#ffffff;stroke-width:0" />
      </g><g
   transform="translate(156.018,134.765)"
   style="fill:#ffffff;stroke-width:0"
   id="g2"><path
   d="M 0.640625,-0.84375 C 0.546875,-0.75 0.546875,-0.734375 0.546875,-0.5625 v 0.078125 C 0.546875,-0.125 0.65625,0 1.03125,0 h 3.421875 c 0.375,0 0.46875,-0.125 0.46875,-0.484375 V -0.59375 c 0,-0.15625 0,-0.359375 -0.203125,-0.4375 C 4.640625,-1.078125 4.328125,-1.078125 4.125,-1.078125 c -0.21875,0 -0.453125,0.015625 -0.671875,0.015625 h -1.625 l 1.328125,-1.25 c 0.140625,-0.125 0.515625,-0.4375 0.671875,-0.578125 0.546875,-0.53125 1.09375,-1.0625 1.09375,-1.953125 0,-1.21875 -0.875,-2.296875 -2.34375,-2.296875 -0.34375,0 -0.90625,0.046875 -1.390625,0.4375 -0.09375,0.078125 -0.546875,0.4375 -0.734375,1.09375 l 0.5,0.640625 c 0.0625,0.078125 0.09375,0.125 0.15625,0.125 0.09375,0 0.109375,-0.078125 0.140625,-0.1875 0.203125,-0.6875 0.546875,-1.109375 1.1875,-1.109375 0.765625,0 1.09375,0.703125 1.09375,1.3125 0,0.640625 -0.375,1.3125 -0.984375,1.953125 z m 0,0"
   id="id-8508ce93-4662-402d-b673-44af225f4069"
   style="fill:#ffffff;stroke-width:0" />
      </g><g
   transform="translate(161.497,134.765)"
   style="fill:#ffffff;stroke-width:0"
   id="g3"><path
   d="M 2.6875,-4.390625 C 2.46875,-4.453125 1.859375,-4.671875 1.859375,-5.25 c 0,-0.84375 0.84375,-0.859375 1.1875,-0.859375 0.546875,0 1.046875,0.125 1.53125,0.609375 0.171875,0.140625 0.171875,0.15625 0.21875,0.15625 0.0625,0 0.109375,-0.03125 0.140625,-0.171875 l 0.140625,-0.875 c 0.03125,-0.078125 0.03125,-0.09375 0.03125,-0.125 0,-0.078125 -0.015625,-0.09375 -0.265625,-0.21875 -0.703125,-0.359375 -1.296875,-0.40625 -1.796875,-0.40625 -0.890625,0 -2.4375,0.21875 -2.4375,2.078125 0,0.703125 0.375,1.171875 0.5625,1.359375 0.5,0.515625 0.96875,0.625 1.75,0.796875 0.5625,0.140625 0.78125,0.1875 1,0.390625 0.09375,0.09375 0.3125,0.296875 0.3125,0.6875 0,0.9375 -0.859375,0.953125 -1.1875,0.953125 -0.84375,0 -1.578125,-0.328125 -2.0625,-0.78125 -0.125,-0.125 -0.140625,-0.125 -0.1875,-0.125 -0.0625,0 -0.109375,0.03125 -0.140625,0.1875 l -0.140625,0.859375 c -0.03125,0.09375 -0.03125,0.109375 -0.03125,0.140625 0,0.203125 1.046875,0.5625 1.09375,0.578125 C 2.25,0.203125 2.78125,0.21875 3.046875,0.21875 4.53125,0.21875 5.46875,-0.453125 5.46875,-2 c 0,-1.109375 -0.828125,-1.953125 -1.8125,-2.171875 z m 0,0"
   id="id-1a590116-eb98-47f4-8e03-655d971d3bc0"
   style="fill:#ffffff;stroke-width:0" />
      </g></g>
  <g
   fill-opacity="1"
   id="id-4f8daa57-ddf1-4b62-96b9-897068b3d142"
   transform="translate(-149.118,-127.624)"
   style="fill:#ffffff;stroke-width:0">
    <g
   transform="translate(171.241,134.765)"
   style="fill:#ffffff;stroke-width:0"
   id="g4"><path
   d="m 4.96875,-6.4375 c 0,-0.328125 -0.0625,-0.484375 -0.46875,-0.484375 H 4.125 c -0.375,0 -0.46875,0.140625 -0.46875,0.484375 v 2.265625 c -0.453125,-0.4375 -0.953125,-0.5 -1.265625,-0.5 -2.015625,0 -2.015625,1.90625 -2.015625,2.40625 0,0.453125 0,2.375 1.96875,2.375 0.421875,0 0.84375,-0.125 1.28125,-0.578125 C 3.625,-0.09375 3.765625,0 4.09375,0 H 4.5 C 4.875,0 4.96875,-0.125 4.96875,-0.484375 Z M 3.625,-1.25 c 0,0.171875 0,0.265625 -0.296875,0.46875 -0.25,0.15625 -0.484375,0.171875 -0.59375,0.171875 -1.015625,0 -1.015625,-0.921875 -1.015625,-1.65625 0,-0.75 0,-1.6875 1.125,-1.6875 0.28125,0 0.5625,0.09375 0.78125,0.296875 z m 0,0"
   id="id-966a5ede-5049-49a5-9853-e45911396b7a"
   style="fill:#ffffff;stroke-width:0" />
      </g><g
   transform="translate(176.831,134.765)"
   style="fill:#ffffff;stroke-width:0"
   id="g5"><path
   d="m 4.296875,-2.140625 c 0.234375,0 0.484375,0 0.484375,-0.453125 0,-1.28125 -0.609375,-2.140625 -2.09375,-2.140625 -1.59375,0 -2.375,0.890625 -2.375,2.40625 0,1.640625 0.9375,2.4375 2.515625,2.4375 0.375,0 0.9375,-0.046875 1.59375,-0.375 C 4.640625,-0.375 4.71875,-0.40625 4.71875,-0.53125 c 0,-0.0625 -0.03125,-0.359375 -0.046875,-0.4375 -0.03125,-0.3125 -0.046875,-0.3125 -0.140625,-0.3125 -0.03125,0 -0.0625,0 -0.171875,0.09375 -0.578125,0.515625 -1.171875,0.578125 -1.5,0.578125 -1.125,0 -1.25,-0.890625 -1.28125,-1.53125 z M 1.59375,-2.65625 C 1.625,-3.265625 1.828125,-4.015625 2.6875,-4.015625 c 0.796875,0 0.953125,0.578125 0.984375,1.359375 z m 0,0"
   id="id-d3c52d1f-d613-4eee-9cf5-acde44b3400c"
   style="fill:#ffffff;stroke-width:0" />
      </g><g
   transform="translate(181.923,134.765)"
   style="fill:#ffffff;stroke-width:0"
   id="g6"><path
   d="m 8.03125,-3.234375 c 0,-1.03125 -0.4375,-1.4375 -1.453125,-1.4375 -0.703125,0 -1.25,0.328125 -1.609375,0.984375 -0.15625,-0.953125 -1.015625,-0.984375 -1.4375,-0.984375 -0.1875,0 -0.59375,0 -1.046875,0.328125 -0.3125,0.234375 -0.515625,0.546875 -0.578125,0.6875 H 1.890625 v -0.484375 c 0,-0.328125 -0.0625,-0.484375 -0.46875,-0.484375 h -0.34375 c -0.359375,0 -0.484375,0.109375 -0.484375,0.484375 v 3.65625 C 0.59375,-0.125 0.703125,0 1.078125,0 H 1.46875 C 1.859375,0 1.953125,-0.125 1.953125,-0.484375 V -2.6875 c 0,-0.890625 0.609375,-1.265625 1.09375,-1.265625 0.484375,0 0.59375,0.203125 0.59375,0.734375 v 2.734375 C 3.640625,-0.125 3.75,0 4.109375,0 h 0.40625 C 4.890625,0 5,-0.125 5,-0.484375 V -2.6875 c 0,-0.890625 0.609375,-1.265625 1.09375,-1.265625 0.46875,0 0.578125,0.203125 0.578125,0.734375 v 2.734375 C 6.671875,-0.125 6.78125,0 7.15625,0 H 7.5625 c 0.375,0 0.46875,-0.125 0.46875,-0.484375 z m 0,0"
   id="id-59e05e25-5fa2-4d10-873d-9a4aced860af"
   style="fill:#ffffff;stroke-width:0" />
      </g><g
   transform="translate(190.558,134.765)"
   style="fill:#ffffff;stroke-width:0"
   id="g7"><path
   d="m 5.15625,-2.25 c 0,-1.625 -0.796875,-2.484375 -2.421875,-2.484375 -1.65625,0 -2.421875,0.890625 -2.421875,2.484375 0,1.625 0.859375,2.359375 2.421875,2.359375 1.5625,0 2.421875,-0.71875 2.421875,-2.359375 z m -2.421875,1.578125 c -1.0625,0 -1.0625,-0.890625 -1.0625,-1.6875 0,-0.765625 0,-1.65625 1.0625,-1.65625 1.078125,0 1.078125,0.875 1.078125,1.65625 0,0.78125 0,1.6875 -1.078125,1.6875 z m 0,0"
   id="id-cb5c61b4-503d-4615-8edf-373e8f95f80e"
   style="fill:#ffffff;stroke-width:0" />
      </g></g>
</g><rect
       style="fill:#ffffff;stroke-width:0.64"
       id="rect9"
       width="35.560001"
       height="23.706669"
       x="238.84692"
       y="132.49591" /><g
       style="fill:#ff0000"
       id="g8"
       transform="matrix(2.1166667,0,0,2.1166667,220.3737,108.40191)"><path
         d="m 12.932,20.459 v -8.917 l 7.839,4.459 z M 30.368,8.735 C 30.014,7.434 29.014,6.428 27.743,6.072 L 27.716,6.066 C 24.523,5.66 20.83,5.428 17.082,5.428 c -0.381,0 -0.761,0.002 -1.14,0.007 L 16,5.434 C 15.678,5.43 15.299,5.427 14.918,5.427 11.17,5.427 7.475,5.659 3.848,6.108 L 4.282,6.064 C 2.985,6.427 1.985,7.432 1.638,8.707 L 1.632,8.733 c -0.4,2.109 -0.628,4.536 -0.628,7.016 0,0.088 0,0.176 10e-4,0.263 v -0.014 c 0,0.074 -10e-4,0.162 -10e-4,0.25 0,2.48 0.229,4.906 0.666,7.259 L 1.632,23.263 c 0.354,1.301 1.354,2.307 2.625,2.663 l 0.027,0.006 c 3.193,0.406 6.886,0.638 10.634,0.638 0.38,0 0.76,-0.002 1.14,-0.007 L 16,26.564 c 0.322,0.004 0.702,0.007 1.082,0.007 3.749,0 7.443,-0.232 11.07,-0.681 l -0.434,0.044 c 1.298,-0.362 2.298,-1.368 2.646,-2.643 l 0.006,-0.026 c 0.399,-2.109 0.627,-4.536 0.627,-7.015 0,-0.088 0,-0.176 -0.001,-0.263 V 16 c 0,-0.074 0.001,-0.162 0.001,-0.25 0,-2.48 -0.229,-4.906 -0.666,-7.259 l 0.038,0.244 z"
         id="path1"
         style="fill:#ff0000" /></g></g></svg>
